<svg xmlns="http://www.w3.org/2000/svg" viewBox="0 0 1200 420" role="img" aria-label="NYC street life — line drawing"><title>NYC street life — line drawing</title><rect width="1200" height="420" fill="#ffffff"/><g stroke="#141414" stroke-width="2.1" fill="none" stroke-linecap="round" stroke-linejoin="round"><rect x="7.9" y="182.8" width="213.0" height="126.0" fill="#fff"/>
<path d="M11.9,253.7 L216.8,253.7 L216.8,265.7 q-8.0,8.0 -16.0,0 q-8.0,8.0 -16.0,0 q-8.0,8.0 -16.0,0 q-8.0,8.0 -16.0,0 q-8.0,8.0 -16.0,0 q-8.0,8.0 -16.0,0 q-8.0,8.0 -16.0,0 q-8.0,8.0 -16.0,0 q-8.0,8.0 -16.0,0 q-8.0,8.0 -16.0,0 q-8.0,8.0 -16.0,0 q-8.0,8.0 -16.0,0 L11.9,253.7 Z" fill="#fff"/>
<line x1="27.9" y1="253.7" x2="27.9" y2="264.7"/>
<line x1="43.9" y1="253.7" x2="43.9" y2="264.7"/>
<line x1="59.9" y1="253.7" x2="59.9" y2="264.7"/>
<line x1="75.9" y1="253.7" x2="75.9" y2="264.7"/>
<line x1="91.9" y1="253.7" x2="91.9" y2="264.7"/>
<line x1="107.9" y1="253.7" x2="107.9" y2="264.7"/>
<line x1="123.9" y1="253.7" x2="123.9" y2="264.7"/>
<line x1="139.9" y1="253.7" x2="139.9" y2="264.7"/>
<line x1="155.9" y1="253.7" x2="155.9" y2="264.7"/>
<line x1="171.9" y1="253.7" x2="171.9" y2="264.7"/>
<line x1="187.9" y1="253.7" x2="187.9" y2="264.7"/>
<rect x="13.9" y="196.8" width="32.2" height="13.2" fill="#fff"/>
<rect x="54.1" y="196.8" width="32.2" height="13.2" fill="#fff"/>
<rect x="94.2" y="196.8" width="32.2" height="13.2" fill="#fff"/>
<rect x="134.4" y="196.8" width="32.2" height="13.2" fill="#fff"/>
<rect x="174.6" y="196.8" width="32.2" height="13.2" fill="#fff"/>
<rect x="13.9" y="218.8" width="32.2" height="13.2" fill="#fff"/>
<rect x="54.1" y="218.8" width="32.2" height="13.2" fill="#fff"/>
<rect x="94.2" y="218.8" width="32.2" height="13.2" fill="#fff"/>
<rect x="134.4" y="218.8" width="32.2" height="13.2" fill="#fff"/>
<rect x="174.6" y="218.8" width="32.2" height="13.2" fill="#fff"/>
<rect x="15.9" y="268.8" width="20.0" height="40.0" fill="#fff"/>
<rect x="43.9" y="268.8" width="169.0" height="32.0" fill="#fff"/>
<rect x="225.9" y="213.6" width="237.9" height="95.2" fill="#fff"/>
<path d="M229.9,252.6 L459.8,252.6 L459.8,264.6 q-8.0,8.0 -16.0,0 q-8.0,8.0 -16.0,0 q-8.0,8.0 -16.0,0 q-8.0,8.0 -16.0,0 q-8.0,8.0 -16.0,0 q-8.0,8.0 -16.0,0 q-8.0,8.0 -16.0,0 q-8.0,8.0 -16.0,0 q-8.0,8.0 -16.0,0 q-8.0,8.0 -16.0,0 q-8.0,8.0 -16.0,0 q-8.0,8.0 -16.0,0 q-8.0,8.0 -16.0,0 q-8.0,8.0 -16.0,0 L229.9,252.6 Z" fill="#fff"/>
<line x1="245.9" y1="252.6" x2="245.9" y2="263.6"/>
<line x1="261.9" y1="252.6" x2="261.9" y2="263.6"/>
<line x1="277.9" y1="252.6" x2="277.9" y2="263.6"/>
<line x1="293.9" y1="252.6" x2="293.9" y2="263.6"/>
<line x1="309.9" y1="252.6" x2="309.9" y2="263.6"/>
<line x1="325.9" y1="252.6" x2="325.9" y2="263.6"/>
<line x1="341.9" y1="252.6" x2="341.9" y2="263.6"/>
<line x1="357.9" y1="252.6" x2="357.9" y2="263.6"/>
<line x1="373.9" y1="252.6" x2="373.9" y2="263.6"/>
<line x1="389.9" y1="252.6" x2="389.9" y2="263.6"/>
<line x1="405.9" y1="252.6" x2="405.9" y2="263.6"/>
<line x1="421.9" y1="252.6" x2="421.9" y2="263.6"/>
<line x1="437.9" y1="252.6" x2="437.9" y2="263.6"/>
<rect x="231.9" y="227.6" width="37.2" height="13.2" fill="#fff"/>
<rect x="277.1" y="227.6" width="37.2" height="13.2" fill="#fff"/>
<rect x="322.3" y="227.6" width="37.2" height="13.2" fill="#fff"/>
<rect x="367.5" y="227.6" width="37.2" height="13.2" fill="#fff"/>
<rect x="412.6" y="227.6" width="37.2" height="13.2" fill="#fff"/>
<rect x="233.9" y="268.8" width="20.0" height="40.0" fill="#fff"/>
<rect x="261.9" y="268.8" width="193.9" height="32.0" fill="#fff"/>
<rect x="471.8" y="199.9" width="158.7" height="108.9" fill="#fff"/>
<path d="M475.8,247.7 L626.4,247.7 L626.4,259.7 q-8.0,8.0 -16.0,0 q-8.0,8.0 -16.0,0 q-8.0,8.0 -16.0,0 q-8.0,8.0 -16.0,0 q-8.0,8.0 -16.0,0 q-8.0,8.0 -16.0,0 q-8.0,8.0 -16.0,0 q-8.0,8.0 -16.0,0 q-8.0,8.0 -16.0,0 L475.8,247.7 Z" fill="#fff"/>
<line x1="491.8" y1="247.7" x2="491.8" y2="258.7"/>
<line x1="507.8" y1="247.7" x2="507.8" y2="258.7"/>
<line x1="523.8" y1="247.7" x2="523.8" y2="258.7"/>
<line x1="539.8" y1="247.7" x2="539.8" y2="258.7"/>
<line x1="555.8" y1="247.7" x2="555.8" y2="258.7"/>
<line x1="571.8" y1="247.7" x2="571.8" y2="258.7"/>
<line x1="587.8" y1="247.7" x2="587.8" y2="258.7"/>
<line x1="603.8" y1="247.7" x2="603.8" y2="258.7"/>
<rect x="477.8" y="213.9" width="40.9" height="13.2" fill="#fff"/>
<rect x="526.7" y="213.9" width="40.9" height="13.2" fill="#fff"/>
<rect x="575.6" y="213.9" width="40.9" height="13.2" fill="#fff"/>
<rect x="479.8" y="268.8" width="20.0" height="40.0" fill="#fff"/>
<rect x="507.8" y="268.8" width="114.7" height="32.0" fill="#fff"/>
<rect x="635.6" y="221.9" width="238.4" height="86.9" fill="#fff"/>
<path d="M639.6,253.8 L870.0,253.8 L870.0,265.8 q-8.0,8.0 -16.0,0 q-8.0,8.0 -16.0,0 q-8.0,8.0 -16.0,0 q-8.0,8.0 -16.0,0 q-8.0,8.0 -16.0,0 q-8.0,8.0 -16.0,0 q-8.0,8.0 -16.0,0 q-8.0,8.0 -16.0,0 q-8.0,8.0 -16.0,0 q-8.0,8.0 -16.0,0 q-8.0,8.0 -16.0,0 q-8.0,8.0 -16.0,0 q-8.0,8.0 -16.0,0 q-8.0,8.0 -16.0,0 L639.6,253.8 Z" fill="#fff"/>
<line x1="655.6" y1="253.8" x2="655.6" y2="264.8"/>
<line x1="671.6" y1="253.8" x2="671.6" y2="264.8"/>
<line x1="687.6" y1="253.8" x2="687.6" y2="264.8"/>
<line x1="703.6" y1="253.8" x2="703.6" y2="264.8"/>
<line x1="719.6" y1="253.8" x2="719.6" y2="264.8"/>
<line x1="735.6" y1="253.8" x2="735.6" y2="264.8"/>
<line x1="751.6" y1="253.8" x2="751.6" y2="264.8"/>
<line x1="767.6" y1="253.8" x2="767.6" y2="264.8"/>
<line x1="783.6" y1="253.8" x2="783.6" y2="264.8"/>
<line x1="799.6" y1="253.8" x2="799.6" y2="264.8"/>
<line x1="815.6" y1="253.8" x2="815.6" y2="264.8"/>
<line x1="831.6" y1="253.8" x2="831.6" y2="264.8"/>
<line x1="847.6" y1="253.8" x2="847.6" y2="264.8"/>
<rect x="641.6" y="235.9" width="37.3" height="13.2" fill="#fff"/>
<rect x="686.9" y="235.9" width="37.3" height="13.2" fill="#fff"/>
<rect x="732.1" y="235.9" width="37.3" height="13.2" fill="#fff"/>
<rect x="777.4" y="235.9" width="37.3" height="13.2" fill="#fff"/>
<rect x="822.7" y="235.9" width="37.3" height="13.2" fill="#fff"/>
<rect x="643.6" y="268.8" width="20.0" height="40.0" fill="#fff"/>
<rect x="671.6" y="268.8" width="194.4" height="32.0" fill="#fff"/>
<rect x="878.6" y="205.4" width="156.5" height="103.4" fill="#fff"/>
<path d="M882.6,250.6 L1031.1,250.6 L1031.1,262.6 q-8.0,8.0 -16.0,0 q-8.0,8.0 -16.0,0 q-8.0,8.0 -16.0,0 q-8.0,8.0 -16.0,0 q-8.0,8.0 -16.0,0 q-8.0,8.0 -16.0,0 q-8.0,8.0 -16.0,0 q-8.0,8.0 -16.0,0 q-8.0,8.0 -16.0,0 L882.6,250.6 Z" fill="#fff"/>
<line x1="898.6" y1="250.6" x2="898.6" y2="261.6"/>
<line x1="914.6" y1="250.6" x2="914.6" y2="261.6"/>
<line x1="930.6" y1="250.6" x2="930.6" y2="261.6"/>
<line x1="946.6" y1="250.6" x2="946.6" y2="261.6"/>
<line x1="962.6" y1="250.6" x2="962.6" y2="261.6"/>
<line x1="978.6" y1="250.6" x2="978.6" y2="261.6"/>
<line x1="994.6" y1="250.6" x2="994.6" y2="261.6"/>
<line x1="1010.6" y1="250.6" x2="1010.6" y2="261.6"/>
<rect x="884.6" y="219.4" width="40.2" height="13.2" fill="#fff"/>
<rect x="932.7" y="219.4" width="40.2" height="13.2" fill="#fff"/>
<rect x="980.9" y="219.4" width="40.2" height="13.2" fill="#fff"/>
<rect x="886.6" y="268.8" width="20.0" height="40.0" fill="#fff"/>
<rect x="914.6" y="268.8" width="112.5" height="32.0" fill="#fff"/>
<rect x="1038.2" y="204.9" width="210.9" height="103.9" fill="#fff"/>
<path d="M1042.2,247.4 L1245.2,247.4 L1245.2,259.4 q-8.0,8.0 -16.0,0 q-8.0,8.0 -16.0,0 q-8.0,8.0 -16.0,0 q-8.0,8.0 -16.0,0 q-8.0,8.0 -16.0,0 q-8.0,8.0 -16.0,0 q-8.0,8.0 -16.0,0 q-8.0,8.0 -16.0,0 q-8.0,8.0 -16.0,0 q-8.0,8.0 -16.0,0 q-8.0,8.0 -16.0,0 q-8.0,8.0 -16.0,0 L1042.2,247.4 Z" fill="#fff"/>
<line x1="1058.2" y1="247.4" x2="1058.2" y2="258.4"/>
<line x1="1074.2" y1="247.4" x2="1074.2" y2="258.4"/>
<line x1="1090.2" y1="247.4" x2="1090.2" y2="258.4"/>
<line x1="1106.2" y1="247.4" x2="1106.2" y2="258.4"/>
<line x1="1122.2" y1="247.4" x2="1122.2" y2="258.4"/>
<line x1="1138.2" y1="247.4" x2="1138.2" y2="258.4"/>
<line x1="1154.2" y1="247.4" x2="1154.2" y2="258.4"/>
<line x1="1170.2" y1="247.4" x2="1170.2" y2="258.4"/>
<line x1="1186.2" y1="247.4" x2="1186.2" y2="258.4"/>
<line x1="1202.2" y1="247.4" x2="1202.2" y2="258.4"/>
<line x1="1218.2" y1="247.4" x2="1218.2" y2="258.4"/>
<rect x="1044.2" y="218.9" width="31.8" height="13.2" fill="#fff"/>
<rect x="1084.0" y="218.9" width="31.8" height="13.2" fill="#fff"/>
<rect x="1123.8" y="218.9" width="31.8" height="13.2" fill="#fff"/>
<rect x="1163.6" y="218.9" width="31.8" height="13.2" fill="#fff"/>
<rect x="1203.4" y="218.9" width="31.8" height="13.2" fill="#fff"/>
<rect x="1046.2" y="268.8" width="20.0" height="40.0" fill="#fff"/>
<rect x="1074.2" y="268.8" width="166.9" height="32.0" fill="#fff"/>
<line x1="0.0" y1="310.8" x2="1200.0" y2="310.8"/>
<line x1="0.0" y1="324.8" x2="1200.0" y2="324.8"/>
<line x1="40.0" y1="372.4" x2="74.0" y2="372.4"/>
<line x1="132.0" y1="372.4" x2="166.0" y2="372.4"/>
<line x1="224.0" y1="372.4" x2="258.0" y2="372.4"/>
<line x1="316.0" y1="372.4" x2="350.0" y2="372.4"/>
<line x1="408.0" y1="372.4" x2="442.0" y2="372.4"/>
<line x1="500.0" y1="372.4" x2="534.0" y2="372.4"/>
<line x1="592.0" y1="372.4" x2="626.0" y2="372.4"/>
<line x1="684.0" y1="372.4" x2="718.0" y2="372.4"/>
<line x1="776.0" y1="372.4" x2="810.0" y2="372.4"/>
<line x1="868.0" y1="372.4" x2="902.0" y2="372.4"/>
<line x1="960.0" y1="372.4" x2="994.0" y2="372.4"/>
<line x1="1052.0" y1="372.4" x2="1086.0" y2="372.4"/>
<line x1="1144.0" y1="372.4" x2="1178.0" y2="372.4"/>
<line x1="946.4" y1="277.1" x2="946.4" y2="190.3"/>
<line x1="1113.7" y1="277.1" x2="1113.7" y2="190.3"/>
<path d="M946.4,190.3 L1113.7,190.3 L1113.7,204.3 q-9.0,9.0 -18.0,0 q-9.0,9.0 -18.0,0 q-9.0,9.0 -18.0,0 q-9.0,9.0 -18.0,0 q-9.0,9.0 -18.0,0 q-9.0,9.0 -18.0,0 q-9.0,9.0 -18.0,0 q-9.0,9.0 -18.0,0 q-9.0,9.0 -18.0,0 L946.4,190.3 Z" fill="#fff"/>
<line x1="964.4" y1="190.3" x2="964.4" y2="203.3"/>
<line x1="982.4" y1="190.3" x2="982.4" y2="203.3"/>
<line x1="1000.4" y1="190.3" x2="1000.4" y2="203.3"/>
<line x1="1018.4" y1="190.3" x2="1018.4" y2="203.3"/>
<line x1="1036.4" y1="190.3" x2="1036.4" y2="203.3"/>
<line x1="1054.4" y1="190.3" x2="1054.4" y2="203.3"/>
<line x1="1072.4" y1="190.3" x2="1072.4" y2="203.3"/>
<line x1="1090.4" y1="190.3" x2="1090.4" y2="203.3"/>
<rect x="954.4" y="277.1" width="151.3" height="10.0" fill="#fff"/>
<line x1="960.4" y1="287.1" x2="960.4" y2="310.8"/>
<line x1="1099.7" y1="287.1" x2="1099.7" y2="310.8"/>
<circle cx="962.4" cy="273.1" r="4.0" fill="none"/>
<circle cx="979.3" cy="273.1" r="4.6" fill="none"/>
<circle cx="996.2" cy="273.1" r="5.0" fill="none"/>
<circle cx="1013.1" cy="273.1" r="3.7" fill="none"/>
<circle cx="1030.0" cy="273.1" r="3.8" fill="none"/>
<circle cx="1047.0" cy="273.1" r="4.8" fill="none"/>
<circle cx="1063.9" cy="273.1" r="4.2" fill="none"/>
<circle cx="1080.8" cy="273.1" r="3.9" fill="none"/>
<rect x="262.3" y="292.8" width="12.0" height="18.0" fill="#fff"/>
<path d="M262.3,292.8 q6,-6 12,0" fill="#fff"/>
<line x1="259.3" y1="298.8" x2="277.3" y2="298.8"/>
<circle cx="268.3" cy="297.8" r="2.5" fill="none"/>
<line x1="386.9" y1="310.8" x2="386.9" y2="169.5"/>
<path d="M386.9,169.5 q18.0,0 20.0,16.0" fill="none"/>
<path d="M406.9,185.5 l-5.0,12.0 l10.0,0 Z" fill="#fff"/>
<circle cx="42.2" cy="247.6" r="6.5" fill="none"/>
<path d="M34.9,255.7 Q42.2,251.8 49.5,255.7 L51.5,286.6 Q42.2,288.9 32.9,286.6 Z" fill="#fff"/>
<line x1="38.3" y1="286.6" x2="42.1" y2="318.0"/>
<line x1="46.0" y1="286.6" x2="44.6" y2="318.0"/>
<line x1="42.1" y1="318.0" x2="37.8" y2="318.0"/>
<line x1="44.6" y1="318.0" x2="40.3" y2="318.0"/>
<circle cx="81.7" cy="237.9" r="7.2" fill="none"/>
<path d="M73.6,246.8 Q81.7,242.5 89.8,246.8 L92.0,280.1 Q81.7,282.6 71.4,280.1 Z" fill="#fff"/>
<line x1="77.5" y1="280.1" x2="74.1" y2="315.7"/>
<line x1="86.0" y1="280.1" x2="87.3" y2="315.7"/>
<line x1="74.1" y1="315.7" x2="78.8" y2="315.7"/>
<line x1="87.3" y1="315.7" x2="92.0" y2="315.7"/>
<circle cx="103.8" cy="239.4" r="7.1" fill="none"/>
<line x1="95.0" y1="237.0" x2="112.7" y2="237.0"/>
<path d="M96.4,237.0 Q103.8,224.9 111.3,237.0" fill="#fff"/>
<path d="M95.9,248.2 Q103.8,244.0 111.7,248.2 L113.9,283.3 Q103.8,285.8 93.8,283.3 Z" fill="#fff"/>
<line x1="99.7" y1="283.3" x2="103.8" y2="315.7"/>
<line x1="108.0" y1="283.3" x2="106.3" y2="315.7"/>
<line x1="103.8" y1="315.7" x2="99.3" y2="315.7"/>
<line x1="106.3" y1="315.7" x2="101.7" y2="315.7"/>
<circle cx="187.2" cy="221.2" r="8.5" fill="none"/>
<path d="M177.7,231.8 Q187.2,226.7 196.8,231.8 L200.0,275.1 Q187.2,278.1 174.4,275.1 Z" fill="#fff"/>
<line x1="182.2" y1="275.1" x2="179.2" y2="313.0"/>
<line x1="192.3" y1="275.1" x2="193.5" y2="313.0"/>
<line x1="179.2" y1="313.0" x2="184.7" y2="313.0"/>
<line x1="193.5" y1="313.0" x2="199.0" y2="313.0"/>
<circle cx="264.2" cy="230.3" r="8.2" fill="none"/>
<path d="M255.1,240.3 Q264.2,235.5 273.4,240.3 L276.5,278.6 Q264.2,281.5 252.0,278.6 Z" fill="#fff"/>
<line x1="259.4" y1="278.6" x2="264.6" y2="318.2"/>
<line x1="269.0" y1="278.6" x2="267.0" y2="318.2"/>
<line x1="264.6" y1="318.2" x2="259.3" y2="318.2"/>
<line x1="267.0" y1="318.2" x2="261.7" y2="318.2"/>
<circle cx="310.5" cy="258.6" r="5.4" fill="none"/>
<path d="M304.4,265.3 Q310.5,262.1 316.5,265.3 L320.0,289.6 Q310.5,291.5 300.9,289.6 Z" fill="#fff"/>
<line x1="307.3" y1="289.6" x2="304.7" y2="316.5"/>
<line x1="313.6" y1="289.6" x2="314.6" y2="316.5"/>
<line x1="304.7" y1="316.5" x2="308.2" y2="316.5"/>
<line x1="314.6" y1="316.5" x2="318.1" y2="316.5"/>
<line x1="313.8" y1="268.4" x2="319.0" y2="280.6"/>
<rect x="316.2" y="280.6" width="5.7" height="7.6" fill="#fff"/>
<path d="M317.3,280.6 q1.8,-2.5 3.5,0" fill="none"/>
<circle cx="369.6" cy="243.9" r="6.4" fill="none"/>
<line x1="361.6" y1="241.7" x2="377.6" y2="241.7"/>
<path d="M362.9,241.7 Q369.6,230.8 376.3,241.7" fill="#fff"/>
<path d="M362.4,251.8 Q369.6,248.1 376.7,251.8 L381.0,282.7 Q369.6,284.9 358.2,282.7 Z" fill="#fff"/>
<line x1="365.8" y1="282.7" x2="361.6" y2="312.7"/>
<line x1="373.3" y1="282.7" x2="375.0" y2="312.7"/>
<line x1="361.6" y1="312.7" x2="365.7" y2="312.7"/>
<line x1="375.0" y1="312.7" x2="379.2" y2="312.7"/>
<circle cx="463.3" cy="249.3" r="6.2" fill="none"/>
<path d="M456.4,257.0 Q463.3,253.3 470.3,257.0 L472.8,288.8 Q463.3,291.0 453.9,288.8 Z" fill="#fff"/>
<line x1="459.7" y1="288.8" x2="457.2" y2="316.1"/>
<line x1="467.0" y1="288.8" x2="468.0" y2="316.1"/>
<line x1="457.2" y1="316.1" x2="461.2" y2="316.1"/>
<line x1="468.0" y1="316.1" x2="472.0" y2="316.1"/>
<circle cx="482.3" cy="252.7" r="5.9" fill="none"/>
<path d="M475.7,260.0 Q482.3,256.5 488.9,260.0 L491.6,290.7 Q482.3,292.8 473.0,290.7 Z" fill="#fff"/>
<line x1="478.9" y1="290.7" x2="481.3" y2="316.1"/>
<line x1="485.8" y1="290.7" x2="484.8" y2="316.1"/>
<line x1="481.3" y1="316.1" x2="477.5" y2="316.1"/>
<line x1="484.8" y1="316.1" x2="481.0" y2="316.1"/>
<line x1="478.7" y1="263.4" x2="473.9" y2="278.8"/>
<rect x="470.8" y="278.8" width="6.2" height="8.3" fill="#fff"/>
<path d="M472.0,278.8 q1.9,-2.8 3.9,0" fill="none"/>
<circle cx="537.2" cy="243.0" r="6.5" fill="none"/>
<path d="M529.9,251.1 Q537.2,247.2 544.5,251.1 L548.3,281.9 Q537.2,284.2 526.1,281.9 Z" fill="#fff"/>
<line x1="533.4" y1="281.9" x2="531.1" y2="313.1"/>
<line x1="541.0" y1="281.9" x2="542.0" y2="313.1"/>
<line x1="531.1" y1="313.1" x2="535.3" y2="313.1"/>
<line x1="542.0" y1="313.1" x2="546.2" y2="313.1"/>
<circle cx="605.1" cy="225.4" r="8.6" fill="none"/>
<path d="M595.5,236.0 Q605.1,231.0 614.7,236.0 L618.9,281.1 Q605.1,284.1 591.3,281.1 Z" fill="#fff"/>
<line x1="600.0" y1="281.1" x2="604.3" y2="318.1"/>
<line x1="610.2" y1="281.1" x2="608.4" y2="318.1"/>
<line x1="604.3" y1="318.1" x2="598.8" y2="318.1"/>
<line x1="608.4" y1="318.1" x2="602.9" y2="318.1"/>
<line x1="599.8" y1="241.1" x2="592.7" y2="263.6"/>
<rect x="588.1" y="263.6" width="9.1" height="12.2" fill="#fff"/>
<path d="M589.8,263.6 q2.8,-4.1 5.7,0" fill="none"/>
<circle cx="660.6" cy="255.3" r="5.6" fill="none"/>
<path d="M654.3,262.3 Q660.6,259.0 666.9,262.3 L669.1,287.0 Q660.6,289.0 652.2,287.0 Z" fill="#fff"/>
<line x1="657.3" y1="287.0" x2="655.3" y2="316.1"/>
<line x1="664.0" y1="287.0" x2="664.8" y2="316.1"/>
<line x1="655.3" y1="316.1" x2="658.9" y2="316.1"/>
<line x1="664.8" y1="316.1" x2="668.4" y2="316.1"/>
<line x1="664.1" y1="265.6" x2="668.2" y2="278.0"/>
<rect x="665.3" y="278.0" width="6.0" height="8.0" fill="#fff"/>
<path d="M666.4,278.0 q1.9,-2.7 3.7,0" fill="none"/>
<circle cx="734.2" cy="261.5" r="5.4" fill="none"/>
<path d="M728.2,268.2 Q734.2,265.0 740.3,268.2 L742.4,295.5 Q734.2,297.4 726.1,295.5 Z" fill="#fff"/>
<line x1="731.0" y1="295.5" x2="727.4" y2="319.9"/>
<line x1="737.4" y1="295.5" x2="738.9" y2="319.9"/>
<line x1="727.4" y1="319.9" x2="730.9" y2="319.9"/>
<line x1="738.9" y1="319.9" x2="742.4" y2="319.9"/>
<circle cx="826.7" cy="235.4" r="7.4" fill="none"/>
<path d="M818.4,244.6 Q826.7,240.2 835.0,244.6 L839.9,278.0 Q826.7,280.7 813.5,278.0 Z" fill="#fff"/>
<line x1="822.3" y1="278.0" x2="824.9" y2="315.3"/>
<line x1="831.0" y1="278.0" x2="830.0" y2="315.3"/>
<line x1="824.9" y1="315.3" x2="820.1" y2="315.3"/>
<line x1="830.0" y1="315.3" x2="825.2" y2="315.3"/>
<circle cx="873.7" cy="228.0" r="7.9" fill="none"/>
<line x1="863.8" y1="225.2" x2="883.6" y2="225.2"/>
<path d="M865.4,225.2 Q873.7,211.8 882.0,225.2" fill="#fff"/>
<path d="M864.9,237.8 Q873.7,233.1 882.5,237.8 L885.2,277.5 Q873.7,280.3 862.1,277.5 Z" fill="#fff"/>
<line x1="869.0" y1="277.5" x2="865.9" y2="313.1"/>
<line x1="878.3" y1="277.5" x2="879.6" y2="313.1"/>
<line x1="865.9" y1="313.1" x2="871.0" y2="313.1"/>
<line x1="879.6" y1="313.1" x2="884.7" y2="313.1"/>
<circle cx="897.9" cy="234.9" r="7.3" fill="none"/>
<path d="M889.8,243.8 Q897.9,239.6 906.0,243.8 L909.1,282.2 Q897.9,284.7 886.7,282.2 Z" fill="#fff"/>
<line x1="893.6" y1="282.2" x2="898.3" y2="313.1"/>
<line x1="902.2" y1="282.2" x2="900.3" y2="313.1"/>
<line x1="898.3" y1="313.1" x2="893.6" y2="313.1"/>
<line x1="900.3" y1="313.1" x2="895.6" y2="313.1"/>
<circle cx="936.2" cy="238.5" r="6.9" fill="none"/>
<path d="M928.5,247.1 Q936.2,243.0 944.0,247.1 L946.4,283.8 Q936.2,286.2 926.1,283.8 Z" fill="#fff"/>
<line x1="932.1" y1="283.8" x2="936.7" y2="313.3"/>
<line x1="940.3" y1="283.8" x2="938.5" y2="313.3"/>
<line x1="936.7" y1="313.3" x2="932.2" y2="313.3"/>
<line x1="938.5" y1="313.3" x2="934.0" y2="313.3"/>
<line x1="932.0" y1="251.2" x2="927.1" y2="269.5"/>
<rect x="923.4" y="269.5" width="7.3" height="9.8" fill="#fff"/>
<path d="M924.8,269.5 q2.3,-3.3 4.6,0" fill="none"/>
<circle cx="1008.4" cy="248.2" r="6.5" fill="none"/>
<line x1="1000.3" y1="245.9" x2="1016.5" y2="245.9"/>
<path d="M1001.6,245.9 Q1008.4,234.9 1015.2,245.9" fill="#fff"/>
<path d="M1001.1,256.3 Q1008.4,252.4 1015.7,256.3 L1019.0,290.2 Q1008.4,292.5 997.8,290.2 Z" fill="#fff"/>
<line x1="1004.6" y1="290.2" x2="1001.9" y2="318.2"/>
<line x1="1012.2" y1="290.2" x2="1013.3" y2="318.2"/>
<line x1="1001.9" y1="318.2" x2="1006.1" y2="318.2"/>
<line x1="1013.3" y1="318.2" x2="1017.5" y2="318.2"/>
<circle cx="1087.2" cy="234.8" r="7.4" fill="none"/>
<path d="M1078.9,244.0 Q1087.2,239.7 1095.5,244.0 L1099.4,279.6 Q1087.2,282.2 1075.1,279.6 Z" fill="#fff"/>
<line x1="1082.9" y1="279.6" x2="1079.3" y2="314.8"/>
<line x1="1091.6" y1="279.6" x2="1093.0" y2="314.8"/>
<line x1="1079.3" y1="314.8" x2="1084.1" y2="314.8"/>
<line x1="1093.0" y1="314.8" x2="1097.8" y2="314.8"/>
<line x1="1091.8" y1="248.4" x2="1098.2" y2="266.2"/>
<rect x="1094.3" y="266.2" width="7.9" height="10.5" fill="#fff"/>
<path d="M1095.7,266.2 q2.4,-3.5 4.9,0" fill="none"/>
<circle cx="1168.1" cy="250.3" r="6.1" fill="none"/>
<path d="M1161.3,257.8 Q1168.1,254.2 1174.9,257.8 L1177.0,288.9 Q1168.1,291.1 1159.2,288.9 Z" fill="#fff"/>
<line x1="1164.5" y1="288.9" x2="1167.3" y2="315.4"/>
<line x1="1171.6" y1="288.9" x2="1170.5" y2="315.4"/>
<line x1="1167.3" y1="315.4" x2="1163.4" y2="315.4"/>
<line x1="1170.5" y1="315.4" x2="1166.6" y2="315.4"/>
<line x1="1164.4" y1="261.3" x2="1160.1" y2="276.9"/>
<rect x="1156.9" y="276.9" width="6.4" height="8.5" fill="#fff"/>
<path d="M1158.1,276.9 q2.0,-2.8 4.0,0" fill="none"/></g></svg>
