<svg xmlns="http://www.w3.org/2000/svg" viewBox="0 0 1200 420" role="img" aria-label="NYC street life — line drawing"><title>NYC street life — line drawing</title><rect width="1200" height="420" fill="#ffffff"/><g stroke="#141414" stroke-width="2.1" fill="none" stroke-linecap="round" stroke-linejoin="round"><rect x="7.9" y="138.8" width="213.0" height="170.0" fill="#fff"/>
<path d="M11.9,245.8 L216.8,245.8 L216.8,257.8 q-8.0,8.0 -16.0,0 q-8.0,8.0 -16.0,0 q-8.0,8.0 -16.0,0 q-8.0,8.0 -16.0,0 q-8.0,8.0 -16.0,0 q-8.0,8.0 -16.0,0 q-8.0,8.0 -16.0,0 q-8.0,8.0 -16.0,0 q-8.0,8.0 -16.0,0 q-8.0,8.0 -16.0,0 q-8.0,8.0 -16.0,0 q-8.0,8.0 -16.0,0 L11.9,245.8 Z" fill="#fff"/>
<line x1="27.9" y1="245.8" x2="27.9" y2="256.8"/>
<line x1="43.9" y1="245.8" x2="43.9" y2="256.8"/>
<line x1="59.9" y1="245.8" x2="59.9" y2="256.8"/>
<line x1="75.9" y1="245.8" x2="75.9" y2="256.8"/>
<line x1="91.9" y1="245.8" x2="91.9" y2="256.8"/>
<line x1="107.9" y1="245.8" x2="107.9" y2="256.8"/>
<line x1="123.9" y1="245.8" x2="123.9" y2="256.8"/>
<line x1="139.9" y1="245.8" x2="139.9" y2="256.8"/>
<line x1="155.9" y1="245.8" x2="155.9" y2="256.8"/>
<line x1="171.9" y1="245.8" x2="171.9" y2="256.8"/>
<line x1="187.9" y1="245.8" x2="187.9" y2="256.8"/>
<rect x="13.9" y="152.8" width="32.2" height="13.2" fill="#fff"/>
<rect x="54.1" y="152.8" width="32.2" height="13.2" fill="#fff"/>
<rect x="94.2" y="152.8" width="32.2" height="13.2" fill="#fff"/>
<rect x="134.4" y="152.8" width="32.2" height="13.2" fill="#fff"/>
<rect x="174.6" y="152.8" width="32.2" height="13.2" fill="#fff"/>
<rect x="13.9" y="174.8" width="32.2" height="13.2" fill="#fff"/>
<rect x="54.1" y="174.8" width="32.2" height="13.2" fill="#fff"/>
<rect x="94.2" y="174.8" width="32.2" height="13.2" fill="#fff"/>
<rect x="134.4" y="174.8" width="32.2" height="13.2" fill="#fff"/>
<rect x="174.6" y="174.8" width="32.2" height="13.2" fill="#fff"/>
<rect x="13.9" y="196.8" width="32.2" height="13.2" fill="#fff"/>
<rect x="54.1" y="196.8" width="32.2" height="13.2" fill="#fff"/>
<rect x="94.2" y="196.8" width="32.2" height="13.2" fill="#fff"/>
<rect x="134.4" y="196.8" width="32.2" height="13.2" fill="#fff"/>
<rect x="174.6" y="196.8" width="32.2" height="13.2" fill="#fff"/>
<rect x="13.9" y="218.8" width="32.2" height="13.2" fill="#fff"/>
<rect x="54.1" y="218.8" width="32.2" height="13.2" fill="#fff"/>
<rect x="94.2" y="218.8" width="32.2" height="13.2" fill="#fff"/>
<rect x="134.4" y="218.8" width="32.2" height="13.2" fill="#fff"/>
<rect x="174.6" y="218.8" width="32.2" height="13.2" fill="#fff"/>
<rect x="15.9" y="268.8" width="20.0" height="40.0" fill="#fff"/>
<rect x="43.9" y="268.8" width="169.0" height="32.0" fill="#fff"/>
<rect x="225.9" y="177.3" width="237.9" height="131.5" fill="#fff"/>
<path d="M229.9,244.3 L459.8,244.3 L459.8,256.3 q-8.0,8.0 -16.0,0 q-8.0,8.0 -16.0,0 q-8.0,8.0 -16.0,0 q-8.0,8.0 -16.0,0 q-8.0,8.0 -16.0,0 q-8.0,8.0 -16.0,0 q-8.0,8.0 -16.0,0 q-8.0,8.0 -16.0,0 q-8.0,8.0 -16.0,0 q-8.0,8.0 -16.0,0 q-8.0,8.0 -16.0,0 q-8.0,8.0 -16.0,0 q-8.0,8.0 -16.0,0 q-8.0,8.0 -16.0,0 L229.9,244.3 Z" fill="#fff"/>
<line x1="245.9" y1="244.3" x2="245.9" y2="255.3"/>
<line x1="261.9" y1="244.3" x2="261.9" y2="255.3"/>
<line x1="277.9" y1="244.3" x2="277.9" y2="255.3"/>
<line x1="293.9" y1="244.3" x2="293.9" y2="255.3"/>
<line x1="309.9" y1="244.3" x2="309.9" y2="255.3"/>
<line x1="325.9" y1="244.3" x2="325.9" y2="255.3"/>
<line x1="341.9" y1="244.3" x2="341.9" y2="255.3"/>
<line x1="357.9" y1="244.3" x2="357.9" y2="255.3"/>
<line x1="373.9" y1="244.3" x2="373.9" y2="255.3"/>
<line x1="389.9" y1="244.3" x2="389.9" y2="255.3"/>
<line x1="405.9" y1="244.3" x2="405.9" y2="255.3"/>
<line x1="421.9" y1="244.3" x2="421.9" y2="255.3"/>
<line x1="437.9" y1="244.3" x2="437.9" y2="255.3"/>
<rect x="231.9" y="191.3" width="37.2" height="13.2" fill="#fff"/>
<rect x="277.1" y="191.3" width="37.2" height="13.2" fill="#fff"/>
<rect x="322.3" y="191.3" width="37.2" height="13.2" fill="#fff"/>
<rect x="367.5" y="191.3" width="37.2" height="13.2" fill="#fff"/>
<rect x="412.6" y="191.3" width="37.2" height="13.2" fill="#fff"/>
<rect x="231.9" y="213.3" width="37.2" height="13.2" fill="#fff"/>
<rect x="277.1" y="213.3" width="37.2" height="13.2" fill="#fff"/>
<rect x="322.3" y="213.3" width="37.2" height="13.2" fill="#fff"/>
<rect x="367.5" y="213.3" width="37.2" height="13.2" fill="#fff"/>
<rect x="412.6" y="213.3" width="37.2" height="13.2" fill="#fff"/>
<rect x="233.9" y="268.8" width="20.0" height="40.0" fill="#fff"/>
<rect x="261.9" y="268.8" width="193.9" height="32.0" fill="#fff"/>
<rect x="471.8" y="160.2" width="158.7" height="148.6" fill="#fff"/>
<path d="M475.8,237.6 L626.4,237.6 L626.4,249.6 q-8.0,8.0 -16.0,0 q-8.0,8.0 -16.0,0 q-8.0,8.0 -16.0,0 q-8.0,8.0 -16.0,0 q-8.0,8.0 -16.0,0 q-8.0,8.0 -16.0,0 q-8.0,8.0 -16.0,0 q-8.0,8.0 -16.0,0 q-8.0,8.0 -16.0,0 L475.8,237.6 Z" fill="#fff"/>
<line x1="491.8" y1="237.6" x2="491.8" y2="248.6"/>
<line x1="507.8" y1="237.6" x2="507.8" y2="248.6"/>
<line x1="523.8" y1="237.6" x2="523.8" y2="248.6"/>
<line x1="539.8" y1="237.6" x2="539.8" y2="248.6"/>
<line x1="555.8" y1="237.6" x2="555.8" y2="248.6"/>
<line x1="571.8" y1="237.6" x2="571.8" y2="248.6"/>
<line x1="587.8" y1="237.6" x2="587.8" y2="248.6"/>
<line x1="603.8" y1="237.6" x2="603.8" y2="248.6"/>
<rect x="477.8" y="174.2" width="40.9" height="13.2" fill="#fff"/>
<rect x="526.7" y="174.2" width="40.9" height="13.2" fill="#fff"/>
<rect x="575.6" y="174.2" width="40.9" height="13.2" fill="#fff"/>
<rect x="477.8" y="196.2" width="40.9" height="13.2" fill="#fff"/>
<rect x="526.7" y="196.2" width="40.9" height="13.2" fill="#fff"/>
<rect x="575.6" y="196.2" width="40.9" height="13.2" fill="#fff"/>
<rect x="477.8" y="218.2" width="40.9" height="13.2" fill="#fff"/>
<rect x="526.7" y="218.2" width="40.9" height="13.2" fill="#fff"/>
<rect x="575.6" y="218.2" width="40.9" height="13.2" fill="#fff"/>
<rect x="479.8" y="268.8" width="20.0" height="40.0" fill="#fff"/>
<rect x="507.8" y="268.8" width="114.7" height="32.0" fill="#fff"/>
<rect x="635.6" y="187.7" width="238.4" height="121.1" fill="#fff"/>
<path d="M639.6,245.9 L870.0,245.9 L870.0,257.9 q-8.0,8.0 -16.0,0 q-8.0,8.0 -16.0,0 q-8.0,8.0 -16.0,0 q-8.0,8.0 -16.0,0 q-8.0,8.0 -16.0,0 q-8.0,8.0 -16.0,0 q-8.0,8.0 -16.0,0 q-8.0,8.0 -16.0,0 q-8.0,8.0 -16.0,0 q-8.0,8.0 -16.0,0 q-8.0,8.0 -16.0,0 q-8.0,8.0 -16.0,0 q-8.0,8.0 -16.0,0 q-8.0,8.0 -16.0,0 L639.6,245.9 Z" fill="#fff"/>
<line x1="655.6" y1="245.9" x2="655.6" y2="256.9"/>
<line x1="671.6" y1="245.9" x2="671.6" y2="256.9"/>
<line x1="687.6" y1="245.9" x2="687.6" y2="256.9"/>
<line x1="703.6" y1="245.9" x2="703.6" y2="256.9"/>
<line x1="719.6" y1="245.9" x2="719.6" y2="256.9"/>
<line x1="735.6" y1="245.9" x2="735.6" y2="256.9"/>
<line x1="751.6" y1="245.9" x2="751.6" y2="256.9"/>
<line x1="767.6" y1="245.9" x2="767.6" y2="256.9"/>
<line x1="783.6" y1="245.9" x2="783.6" y2="256.9"/>
<line x1="799.6" y1="245.9" x2="799.6" y2="256.9"/>
<line x1="815.6" y1="245.9" x2="815.6" y2="256.9"/>
<line x1="831.6" y1="245.9" x2="831.6" y2="256.9"/>
<line x1="847.6" y1="245.9" x2="847.6" y2="256.9"/>
<rect x="641.6" y="201.7" width="37.3" height="13.2" fill="#fff"/>
<rect x="686.9" y="201.7" width="37.3" height="13.2" fill="#fff"/>
<rect x="732.1" y="201.7" width="37.3" height="13.2" fill="#fff"/>
<rect x="777.4" y="201.7" width="37.3" height="13.2" fill="#fff"/>
<rect x="822.7" y="201.7" width="37.3" height="13.2" fill="#fff"/>
<rect x="641.6" y="223.7" width="37.3" height="13.2" fill="#fff"/>
<rect x="686.9" y="223.7" width="37.3" height="13.2" fill="#fff"/>
<rect x="732.1" y="223.7" width="37.3" height="13.2" fill="#fff"/>
<rect x="777.4" y="223.7" width="37.3" height="13.2" fill="#fff"/>
<rect x="822.7" y="223.7" width="37.3" height="13.2" fill="#fff"/>
<rect x="643.6" y="268.8" width="20.0" height="40.0" fill="#fff"/>
<rect x="671.6" y="268.8" width="194.4" height="32.0" fill="#fff"/>
<rect x="878.6" y="167.0" width="156.5" height="141.8" fill="#fff"/>
<path d="M882.6,241.5 L1031.1,241.5 L1031.1,253.5 q-8.0,8.0 -16.0,0 q-8.0,8.0 -16.0,0 q-8.0,8.0 -16.0,0 q-8.0,8.0 -16.0,0 q-8.0,8.0 -16.0,0 q-8.0,8.0 -16.0,0 q-8.0,8.0 -16.0,0 q-8.0,8.0 -16.0,0 q-8.0,8.0 -16.0,0 L882.6,241.5 Z" fill="#fff"/>
<line x1="898.6" y1="241.5" x2="898.6" y2="252.5"/>
<line x1="914.6" y1="241.5" x2="914.6" y2="252.5"/>
<line x1="930.6" y1="241.5" x2="930.6" y2="252.5"/>
<line x1="946.6" y1="241.5" x2="946.6" y2="252.5"/>
<line x1="962.6" y1="241.5" x2="962.6" y2="252.5"/>
<line x1="978.6" y1="241.5" x2="978.6" y2="252.5"/>
<line x1="994.6" y1="241.5" x2="994.6" y2="252.5"/>
<line x1="1010.6" y1="241.5" x2="1010.6" y2="252.5"/>
<rect x="884.6" y="181.0" width="40.2" height="13.2" fill="#fff"/>
<rect x="932.7" y="181.0" width="40.2" height="13.2" fill="#fff"/>
<rect x="980.9" y="181.0" width="40.2" height="13.2" fill="#fff"/>
<rect x="884.6" y="203.0" width="40.2" height="13.2" fill="#fff"/>
<rect x="932.7" y="203.0" width="40.2" height="13.2" fill="#fff"/>
<rect x="980.9" y="203.0" width="40.2" height="13.2" fill="#fff"/>
<rect x="884.6" y="225.0" width="40.2" height="13.2" fill="#fff"/>
<rect x="932.7" y="225.0" width="40.2" height="13.2" fill="#fff"/>
<rect x="980.9" y="225.0" width="40.2" height="13.2" fill="#fff"/>
<rect x="886.6" y="268.8" width="20.0" height="40.0" fill="#fff"/>
<rect x="914.6" y="268.8" width="112.5" height="32.0" fill="#fff"/>
<rect x="1038.2" y="166.4" width="210.9" height="142.4" fill="#fff"/>
<path d="M1042.2,237.1 L1245.2,237.1 L1245.2,249.1 q-8.0,8.0 -16.0,0 q-8.0,8.0 -16.0,0 q-8.0,8.0 -16.0,0 q-8.0,8.0 -16.0,0 q-8.0,8.0 -16.0,0 q-8.0,8.0 -16.0,0 q-8.0,8.0 -16.0,0 q-8.0,8.0 -16.0,0 q-8.0,8.0 -16.0,0 q-8.0,8.0 -16.0,0 q-8.0,8.0 -16.0,0 q-8.0,8.0 -16.0,0 L1042.2,237.1 Z" fill="#fff"/>
<line x1="1058.2" y1="237.1" x2="1058.2" y2="248.1"/>
<line x1="1074.2" y1="237.1" x2="1074.2" y2="248.1"/>
<line x1="1090.2" y1="237.1" x2="1090.2" y2="248.1"/>
<line x1="1106.2" y1="237.1" x2="1106.2" y2="248.1"/>
<line x1="1122.2" y1="237.1" x2="1122.2" y2="248.1"/>
<line x1="1138.2" y1="237.1" x2="1138.2" y2="248.1"/>
<line x1="1154.2" y1="237.1" x2="1154.2" y2="248.1"/>
<line x1="1170.2" y1="237.1" x2="1170.2" y2="248.1"/>
<line x1="1186.2" y1="237.1" x2="1186.2" y2="248.1"/>
<line x1="1202.2" y1="237.1" x2="1202.2" y2="248.1"/>
<line x1="1218.2" y1="237.1" x2="1218.2" y2="248.1"/>
<rect x="1044.2" y="180.4" width="31.8" height="13.2" fill="#fff"/>
<rect x="1084.0" y="180.4" width="31.8" height="13.2" fill="#fff"/>
<rect x="1123.8" y="180.4" width="31.8" height="13.2" fill="#fff"/>
<rect x="1163.6" y="180.4" width="31.8" height="13.2" fill="#fff"/>
<rect x="1203.4" y="180.4" width="31.8" height="13.2" fill="#fff"/>
<rect x="1044.2" y="202.4" width="31.8" height="13.2" fill="#fff"/>
<rect x="1084.0" y="202.4" width="31.8" height="13.2" fill="#fff"/>
<rect x="1123.8" y="202.4" width="31.8" height="13.2" fill="#fff"/>
<rect x="1163.6" y="202.4" width="31.8" height="13.2" fill="#fff"/>
<rect x="1203.4" y="202.4" width="31.8" height="13.2" fill="#fff"/>
<rect x="1046.2" y="268.8" width="20.0" height="40.0" fill="#fff"/>
<rect x="1074.2" y="268.8" width="166.9" height="32.0" fill="#fff"/>
<line x1="0.0" y1="310.8" x2="1200.0" y2="310.8"/>
<line x1="0.0" y1="324.8" x2="1200.0" y2="324.8"/>
<line x1="40.0" y1="372.4" x2="74.0" y2="372.4"/>
<line x1="132.0" y1="372.4" x2="166.0" y2="372.4"/>
<line x1="224.0" y1="372.4" x2="258.0" y2="372.4"/>
<line x1="316.0" y1="372.4" x2="350.0" y2="372.4"/>
<line x1="408.0" y1="372.4" x2="442.0" y2="372.4"/>
<line x1="500.0" y1="372.4" x2="534.0" y2="372.4"/>
<line x1="592.0" y1="372.4" x2="626.0" y2="372.4"/>
<line x1="684.0" y1="372.4" x2="718.0" y2="372.4"/>
<line x1="776.0" y1="372.4" x2="810.0" y2="372.4"/>
<line x1="868.0" y1="372.4" x2="902.0" y2="372.4"/>
<line x1="960.0" y1="372.4" x2="994.0" y2="372.4"/>
<line x1="1052.0" y1="372.4" x2="1086.0" y2="372.4"/>
<line x1="1144.0" y1="372.4" x2="1178.0" y2="372.4"/>
<line x1="946.4" y1="277.1" x2="946.4" y2="190.3"/>
<line x1="1113.7" y1="277.1" x2="1113.7" y2="190.3"/>
<path d="M946.4,190.3 L1113.7,190.3 L1113.7,204.3 q-9.0,9.0 -18.0,0 q-9.0,9.0 -18.0,0 q-9.0,9.0 -18.0,0 q-9.0,9.0 -18.0,0 q-9.0,9.0 -18.0,0 q-9.0,9.0 -18.0,0 q-9.0,9.0 -18.0,0 q-9.0,9.0 -18.0,0 q-9.0,9.0 -18.0,0 L946.4,190.3 Z" fill="#fff"/>
<line x1="964.4" y1="190.3" x2="964.4" y2="203.3"/>
<line x1="982.4" y1="190.3" x2="982.4" y2="203.3"/>
<line x1="1000.4" y1="190.3" x2="1000.4" y2="203.3"/>
<line x1="1018.4" y1="190.3" x2="1018.4" y2="203.3"/>
<line x1="1036.4" y1="190.3" x2="1036.4" y2="203.3"/>
<line x1="1054.4" y1="190.3" x2="1054.4" y2="203.3"/>
<line x1="1072.4" y1="190.3" x2="1072.4" y2="203.3"/>
<line x1="1090.4" y1="190.3" x2="1090.4" y2="203.3"/>
<rect x="954.4" y="277.1" width="151.3" height="10.0" fill="#fff"/>
<line x1="960.4" y1="287.1" x2="960.4" y2="310.8"/>
<line x1="1099.7" y1="287.1" x2="1099.7" y2="310.8"/>
<circle cx="962.4" cy="273.1" r="4.0" fill="none"/>
<circle cx="979.3" cy="273.1" r="4.6" fill="none"/>
<circle cx="996.2" cy="273.1" r="5.0" fill="none"/>
<circle cx="1013.1" cy="273.1" r="3.7" fill="none"/>
<circle cx="1030.0" cy="273.1" r="3.8" fill="none"/>
<circle cx="1047.0" cy="273.1" r="4.8" fill="none"/>
<circle cx="1063.9" cy="273.1" r="4.2" fill="none"/>
<circle cx="1080.8" cy="273.1" r="3.9" fill="none"/>
<rect x="262.3" y="292.8" width="12.0" height="18.0" fill="#fff"/>
<path d="M262.3,292.8 q6,-6 12,0" fill="#fff"/>
<line x1="259.3" y1="298.8" x2="277.3" y2="298.8"/>
<circle cx="268.3" cy="297.8" r="2.5" fill="none"/>
<line x1="386.9" y1="310.8" x2="386.9" y2="169.5"/>
<path d="M386.9,169.5 q18.0,0 20.0,16.0" fill="none"/>
<path d="M406.9,185.5 l-5.0,12.0 l10.0,0 Z" fill="#fff"/>
<circle cx="52.5" cy="238.9" r="8.3" fill="none"/>
<path d="M42.0,253.7 C41.0,267.6 43.6,272.0 45.1,280.7 L59.9,280.7 C61.3,272.0 64.0,267.6 62.9,253.7 Q52.5,248.5 42.0,253.7 Z" fill="none"/>
<line x1="49.9" y1="280.7" x2="46.4" y2="317.2"/>
<line x1="55.1" y1="280.7" x2="63.8" y2="317.2"/>
<line x1="46.4" y1="317.2" x2="50.7" y2="317.2"/>
<line x1="63.8" y1="317.2" x2="59.4" y2="317.2"/>
<line x1="45.2" y1="256.3" x2="40.8" y2="278.9"/>
<circle cx="436.9" cy="221.5" r="10.3" fill="none"/>
<path d="M423.9,239.9 C422.6,257.2 425.9,262.6 427.7,273.4 L446.1,273.4 C447.9,262.6 451.1,257.2 449.8,239.9 Q436.9,233.4 423.9,239.9 Z" fill="none"/>
<line x1="433.6" y1="273.4" x2="429.3" y2="318.8"/>
<line x1="440.1" y1="273.4" x2="450.9" y2="318.8"/>
<line x1="429.3" y1="318.8" x2="423.9" y2="318.8"/>
<line x1="450.9" y1="318.8" x2="456.3" y2="318.8"/>
<line x1="446.0" y1="243.1" x2="451.4" y2="271.2"/>
<line x1="451.4" y1="271.2" x2="471.5" y2="305.8"/>
<path d="M459.6,318.8 l0,-11.9 l2.2,-3.2 l17.3,0 l2.2,3.2 l0,11.9" fill="#fff"/>
<circle cx="488.7" cy="304.7" r="3.2" fill="none"/>
<line x1="492.0" y1="302.5" x2="496.3" y2="304.7"/>
<circle cx="547.9" cy="228.2" r="9.0" fill="none"/>
<path d="M536.6,244.3 C535.5,259.3 538.3,264.1 539.9,273.5 L555.9,273.5 C557.5,264.1 560.4,259.3 559.2,244.3 Q547.9,238.6 536.6,244.3 Z" fill="none"/>
<line x1="545.1" y1="273.5" x2="541.3" y2="313.1"/>
<line x1="550.8" y1="273.5" x2="560.2" y2="313.1"/>
<line x1="541.3" y1="313.1" x2="546.0" y2="313.1"/>
<line x1="560.2" y1="313.1" x2="555.5" y2="313.1"/>
<line x1="540.0" y1="247.1" x2="535.3" y2="271.6"/>
<circle cx="717.5" cy="242.7" r="8.1" fill="none"/>
<path d="M707.2,257.2 C706.2,270.9 708.7,275.2 710.2,283.7 L724.7,283.7 C726.2,275.2 728.7,270.9 727.7,257.2 Q717.5,252.1 707.2,257.2 Z" fill="none"/>
<line x1="714.9" y1="283.7" x2="711.5" y2="319.5"/>
<line x1="720.0" y1="283.7" x2="728.5" y2="319.5"/>
<line x1="711.5" y1="319.5" x2="707.2" y2="319.5"/>
<line x1="728.5" y1="319.5" x2="732.8" y2="319.5"/>
<line x1="724.6" y1="259.8" x2="728.9" y2="282.0"/>
<line x1="728.9" y1="282.0" x2="744.8" y2="309.3"/>
<path d="M735.4,319.5 l0,-9.4 l1.7,-2.6 l13.7,0 l1.7,2.6 l0,9.4" fill="#fff"/>
<circle cx="758.4" cy="308.4" r="2.6" fill="none"/>
<line x1="761.0" y1="306.7" x2="764.4" y2="308.4"/>
<circle cx="726.5" cy="211.4" r="11.1" fill="none"/>
<path d="M712.4,231.4 C711.0,250.1 714.5,256.0 716.5,267.7 L736.4,267.7 C738.4,256.0 741.9,250.1 740.5,231.4 Q726.5,224.4 712.4,231.4 Z" fill="none"/>
<line x1="723.0" y1="267.7" x2="718.3" y2="316.9"/>
<line x1="730.0" y1="267.7" x2="741.7" y2="316.9"/>
<line x1="718.3" y1="316.9" x2="712.4" y2="316.9"/>
<line x1="741.7" y1="316.9" x2="747.6" y2="316.9"/>
<line x1="736.3" y1="234.9" x2="742.2" y2="265.3"/>
<circle cx="728.0" cy="218.6" r="10.7" fill="none"/>
<path d="M714.6,237.7 C713.2,255.6 716.6,261.2 718.5,272.5 L737.6,272.5 C739.5,261.2 742.8,255.6 741.5,237.7 Q728.0,230.9 714.6,237.7 Z" fill="none"/>
<line x1="724.7" y1="272.5" x2="720.2" y2="319.6"/>
<line x1="731.4" y1="272.5" x2="742.6" y2="319.6"/>
<line x1="720.2" y1="319.6" x2="725.8" y2="319.6"/>
<line x1="742.6" y1="319.6" x2="737.0" y2="319.6"/>
<line x1="718.6" y1="241.0" x2="713.0" y2="270.2"/>
<circle cx="821.2" cy="227.7" r="9.4" fill="none"/>
<path d="M809.3,244.5 C808.1,260.3 811.1,265.2 812.8,275.1 L829.5,275.1 C831.2,265.2 834.2,260.3 833.0,244.5 Q821.2,238.6 809.3,244.5 Z" fill="none"/>
<line x1="818.2" y1="275.1" x2="814.3" y2="316.5"/>
<line x1="824.1" y1="275.1" x2="834.0" y2="316.5"/>
<line x1="814.3" y1="316.5" x2="809.3" y2="316.5"/>
<line x1="834.0" y1="316.5" x2="838.9" y2="316.5"/>
<line x1="829.4" y1="247.4" x2="834.4" y2="273.1"/>
<circle cx="965.6" cy="212.2" r="11.2" fill="none"/>
<path d="M951.5,232.3 C950.0,251.2 953.6,257.1 955.6,268.9 L975.7,268.9 C977.7,257.1 981.2,251.2 979.8,232.3 Q965.6,225.2 951.5,232.3 Z" fill="none"/>
<line x1="962.1" y1="268.9" x2="957.4" y2="318.5"/>
<line x1="969.2" y1="268.9" x2="981.0" y2="318.5"/>
<line x1="957.4" y1="318.5" x2="963.3" y2="318.5"/>
<line x1="981.0" y1="318.5" x2="975.1" y2="318.5"/>
<line x1="955.7" y1="235.9" x2="949.8" y2="266.6"/>
<circle cx="1053.1" cy="229.6" r="8.9" fill="none"/>
<path d="M1041.8,245.6 C1040.7,260.7 1043.5,265.4 1045.1,274.8 L1061.1,274.8 C1062.7,265.4 1065.5,260.7 1064.4,245.6 Q1053.1,240.0 1041.8,245.6 Z" fill="none"/>
<line x1="1050.3" y1="274.8" x2="1046.5" y2="314.4"/>
<line x1="1055.9" y1="274.8" x2="1065.3" y2="314.4"/>
<line x1="1046.5" y1="314.4" x2="1041.8" y2="314.4"/>
<line x1="1065.3" y1="314.4" x2="1070.0" y2="314.4"/>
<line x1="1061.0" y1="248.5" x2="1065.7" y2="273.0"/>
<line x1="1065.7" y1="273.0" x2="1083.2" y2="303.1"/>
<path d="M1072.9,314.4 l0,-10.4 l1.9,-2.8 l15.1,0 l1.9,2.8 l0,10.4" fill="#fff"/>
<circle cx="1098.3" cy="302.1" r="2.8" fill="none"/>
<line x1="1101.1" y1="300.3" x2="1104.9" y2="302.1"/>
<circle cx="1079.5" cy="237.2" r="8.1" fill="none"/>
<path d="M1069.2,251.8 C1068.2,265.5 1070.7,269.8 1072.2,278.4 L1086.7,278.4 C1088.2,269.8 1090.8,265.5 1089.7,251.8 Q1079.5,246.7 1069.2,251.8 Z" fill="none"/>
<line x1="1076.9" y1="278.4" x2="1073.5" y2="314.4"/>
<line x1="1082.0" y1="278.4" x2="1090.6" y2="314.4"/>
<line x1="1073.5" y1="314.4" x2="1077.7" y2="314.4"/>
<line x1="1090.6" y1="314.4" x2="1086.3" y2="314.4"/>
<line x1="1072.3" y1="254.4" x2="1068.0" y2="276.7"/></g></svg>
