<svg xmlns="http://www.w3.org/2000/svg" viewBox="0 0 1200 420" role="img" aria-label="NYC street life — line drawing"><title>NYC street life — line drawing</title><rect width="1200" height="420" fill="#ffffff"/><g stroke="#141414" stroke-width="2.1" fill="none" stroke-linecap="round" stroke-linejoin="round"><rect x="7.9" y="138.8" width="213.0" height="170.0" fill="#fff"/>
<path d="M11.9,245.8 L216.8,245.8 L216.8,257.8 q-8.0,8.0 -16.0,0 q-8.0,8.0 -16.0,0 q-8.0,8.0 -16.0,0 q-8.0,8.0 -16.0,0 q-8.0,8.0 -16.0,0 q-8.0,8.0 -16.0,0 q-8.0,8.0 -16.0,0 q-8.0,8.0 -16.0,0 q-8.0,8.0 -16.0,0 q-8.0,8.0 -16.0,0 q-8.0,8.0 -16.0,0 q-8.0,8.0 -16.0,0 L11.9,245.8 Z" fill="#fff"/>
<line x1="27.9" y1="245.8" x2="27.9" y2="256.8"/>
<line x1="43.9" y1="245.8" x2="43.9" y2="256.8"/>
<line x1="59.9" y1="245.8" x2="59.9" y2="256.8"/>
<line x1="75.9" y1="245.8" x2="75.9" y2="256.8"/>
<line x1="91.9" y1="245.8" x2="91.9" y2="256.8"/>
<line x1="107.9" y1="245.8" x2="107.9" y2="256.8"/>
<line x1="123.9" y1="245.8" x2="123.9" y2="256.8"/>
<line x1="139.9" y1="245.8" x2="139.9" y2="256.8"/>
<line x1="155.9" y1="245.8" x2="155.9" y2="256.8"/>
<line x1="171.9" y1="245.8" x2="171.9" y2="256.8"/>
<line x1="187.9" y1="245.8" x2="187.9" y2="256.8"/>
<rect x="13.9" y="152.8" width="32.2" height="13.2" fill="#fff"/>
<rect x="54.1" y="152.8" width="32.2" height="13.2" fill="#fff"/>
<rect x="94.2" y="152.8" width="32.2" height="13.2" fill="#fff"/>
<rect x="134.4" y="152.8" width="32.2" height="13.2" fill="#fff"/>
<rect x="174.6" y="152.8" width="32.2" height="13.2" fill="#fff"/>
<rect x="13.9" y="174.8" width="32.2" height="13.2" fill="#fff"/>
<rect x="54.1" y="174.8" width="32.2" height="13.2" fill="#fff"/>
<rect x="94.2" y="174.8" width="32.2" height="13.2" fill="#fff"/>
<rect x="134.4" y="174.8" width="32.2" height="13.2" fill="#fff"/>
<rect x="174.6" y="174.8" width="32.2" height="13.2" fill="#fff"/>
<rect x="13.9" y="196.8" width="32.2" height="13.2" fill="#fff"/>
<rect x="54.1" y="196.8" width="32.2" height="13.2" fill="#fff"/>
<rect x="94.2" y="196.8" width="32.2" height="13.2" fill="#fff"/>
<rect x="134.4" y="196.8" width="32.2" height="13.2" fill="#fff"/>
<rect x="174.6" y="196.8" width="32.2" height="13.2" fill="#fff"/>
<rect x="13.9" y="218.8" width="32.2" height="13.2" fill="#fff"/>
<rect x="54.1" y="218.8" width="32.2" height="13.2" fill="#fff"/>
<rect x="94.2" y="218.8" width="32.2" height="13.2" fill="#fff"/>
<rect x="134.4" y="218.8" width="32.2" height="13.2" fill="#fff"/>
<rect x="174.6" y="218.8" width="32.2" height="13.2" fill="#fff"/>
<rect x="15.9" y="268.8" width="20.0" height="40.0" fill="#fff"/>
<rect x="43.9" y="268.8" width="169.0" height="32.0" fill="#fff"/>
<rect x="225.9" y="177.3" width="237.9" height="131.5" fill="#fff"/>
<path d="M229.9,244.3 L459.8,244.3 L459.8,256.3 q-8.0,8.0 -16.0,0 q-8.0,8.0 -16.0,0 q-8.0,8.0 -16.0,0 q-8.0,8.0 -16.0,0 q-8.0,8.0 -16.0,0 q-8.0,8.0 -16.0,0 q-8.0,8.0 -16.0,0 q-8.0,8.0 -16.0,0 q-8.0,8.0 -16.0,0 q-8.0,8.0 -16.0,0 q-8.0,8.0 -16.0,0 q-8.0,8.0 -16.0,0 q-8.0,8.0 -16.0,0 q-8.0,8.0 -16.0,0 L229.9,244.3 Z" fill="#fff"/>
<line x1="245.9" y1="244.3" x2="245.9" y2="255.3"/>
<line x1="261.9" y1="244.3" x2="261.9" y2="255.3"/>
<line x1="277.9" y1="244.3" x2="277.9" y2="255.3"/>
<line x1="293.9" y1="244.3" x2="293.9" y2="255.3"/>
<line x1="309.9" y1="244.3" x2="309.9" y2="255.3"/>
<line x1="325.9" y1="244.3" x2="325.9" y2="255.3"/>
<line x1="341.9" y1="244.3" x2="341.9" y2="255.3"/>
<line x1="357.9" y1="244.3" x2="357.9" y2="255.3"/>
<line x1="373.9" y1="244.3" x2="373.9" y2="255.3"/>
<line x1="389.9" y1="244.3" x2="389.9" y2="255.3"/>
<line x1="405.9" y1="244.3" x2="405.9" y2="255.3"/>
<line x1="421.9" y1="244.3" x2="421.9" y2="255.3"/>
<line x1="437.9" y1="244.3" x2="437.9" y2="255.3"/>
<rect x="231.9" y="191.3" width="37.2" height="13.2" fill="#fff"/>
<rect x="277.1" y="191.3" width="37.2" height="13.2" fill="#fff"/>
<rect x="322.3" y="191.3" width="37.2" height="13.2" fill="#fff"/>
<rect x="367.5" y="191.3" width="37.2" height="13.2" fill="#fff"/>
<rect x="412.6" y="191.3" width="37.2" height="13.2" fill="#fff"/>
<rect x="231.9" y="213.3" width="37.2" height="13.2" fill="#fff"/>
<rect x="277.1" y="213.3" width="37.2" height="13.2" fill="#fff"/>
<rect x="322.3" y="213.3" width="37.2" height="13.2" fill="#fff"/>
<rect x="367.5" y="213.3" width="37.2" height="13.2" fill="#fff"/>
<rect x="412.6" y="213.3" width="37.2" height="13.2" fill="#fff"/>
<rect x="233.9" y="268.8" width="20.0" height="40.0" fill="#fff"/>
<rect x="261.9" y="268.8" width="193.9" height="32.0" fill="#fff"/>
<rect x="471.8" y="160.2" width="158.7" height="148.6" fill="#fff"/>
<path d="M475.8,237.6 L626.4,237.6 L626.4,249.6 q-8.0,8.0 -16.0,0 q-8.0,8.0 -16.0,0 q-8.0,8.0 -16.0,0 q-8.0,8.0 -16.0,0 q-8.0,8.0 -16.0,0 q-8.0,8.0 -16.0,0 q-8.0,8.0 -16.0,0 q-8.0,8.0 -16.0,0 q-8.0,8.0 -16.0,0 L475.8,237.6 Z" fill="#fff"/>
<line x1="491.8" y1="237.6" x2="491.8" y2="248.6"/>
<line x1="507.8" y1="237.6" x2="507.8" y2="248.6"/>
<line x1="523.8" y1="237.6" x2="523.8" y2="248.6"/>
<line x1="539.8" y1="237.6" x2="539.8" y2="248.6"/>
<line x1="555.8" y1="237.6" x2="555.8" y2="248.6"/>
<line x1="571.8" y1="237.6" x2="571.8" y2="248.6"/>
<line x1="587.8" y1="237.6" x2="587.8" y2="248.6"/>
<line x1="603.8" y1="237.6" x2="603.8" y2="248.6"/>
<rect x="477.8" y="174.2" width="40.9" height="13.2" fill="#fff"/>
<rect x="526.7" y="174.2" width="40.9" height="13.2" fill="#fff"/>
<rect x="575.6" y="174.2" width="40.9" height="13.2" fill="#fff"/>
<rect x="477.8" y="196.2" width="40.9" height="13.2" fill="#fff"/>
<rect x="526.7" y="196.2" width="40.9" height="13.2" fill="#fff"/>
<rect x="575.6" y="196.2" width="40.9" height="13.2" fill="#fff"/>
<rect x="477.8" y="218.2" width="40.9" height="13.2" fill="#fff"/>
<rect x="526.7" y="218.2" width="40.9" height="13.2" fill="#fff"/>
<rect x="575.6" y="218.2" width="40.9" height="13.2" fill="#fff"/>
<rect x="479.8" y="268.8" width="20.0" height="40.0" fill="#fff"/>
<rect x="507.8" y="268.8" width="114.7" height="32.0" fill="#fff"/>
<rect x="635.6" y="187.7" width="238.4" height="121.1" fill="#fff"/>
<path d="M639.6,245.9 L870.0,245.9 L870.0,257.9 q-8.0,8.0 -16.0,0 q-8.0,8.0 -16.0,0 q-8.0,8.0 -16.0,0 q-8.0,8.0 -16.0,0 q-8.0,8.0 -16.0,0 q-8.0,8.0 -16.0,0 q-8.0,8.0 -16.0,0 q-8.0,8.0 -16.0,0 q-8.0,8.0 -16.0,0 q-8.0,8.0 -16.0,0 q-8.0,8.0 -16.0,0 q-8.0,8.0 -16.0,0 q-8.0,8.0 -16.0,0 q-8.0,8.0 -16.0,0 L639.6,245.9 Z" fill="#fff"/>
<line x1="655.6" y1="245.9" x2="655.6" y2="256.9"/>
<line x1="671.6" y1="245.9" x2="671.6" y2="256.9"/>
<line x1="687.6" y1="245.9" x2="687.6" y2="256.9"/>
<line x1="703.6" y1="245.9" x2="703.6" y2="256.9"/>
<line x1="719.6" y1="245.9" x2="719.6" y2="256.9"/>
<line x1="735.6" y1="245.9" x2="735.6" y2="256.9"/>
<line x1="751.6" y1="245.9" x2="751.6" y2="256.9"/>
<line x1="767.6" y1="245.9" x2="767.6" y2="256.9"/>
<line x1="783.6" y1="245.9" x2="783.6" y2="256.9"/>
<line x1="799.6" y1="245.9" x2="799.6" y2="256.9"/>
<line x1="815.6" y1="245.9" x2="815.6" y2="256.9"/>
<line x1="831.6" y1="245.9" x2="831.6" y2="256.9"/>
<line x1="847.6" y1="245.9" x2="847.6" y2="256.9"/>
<rect x="641.6" y="201.7" width="37.3" height="13.2" fill="#fff"/>
<rect x="686.9" y="201.7" width="37.3" height="13.2" fill="#fff"/>
<rect x="732.1" y="201.7" width="37.3" height="13.2" fill="#fff"/>
<rect x="777.4" y="201.7" width="37.3" height="13.2" fill="#fff"/>
<rect x="822.7" y="201.7" width="37.3" height="13.2" fill="#fff"/>
<rect x="641.6" y="223.7" width="37.3" height="13.2" fill="#fff"/>
<rect x="686.9" y="223.7" width="37.3" height="13.2" fill="#fff"/>
<rect x="732.1" y="223.7" width="37.3" height="13.2" fill="#fff"/>
<rect x="777.4" y="223.7" width="37.3" height="13.2" fill="#fff"/>
<rect x="822.7" y="223.7" width="37.3" height="13.2" fill="#fff"/>
<rect x="643.6" y="268.8" width="20.0" height="40.0" fill="#fff"/>
<rect x="671.6" y="268.8" width="194.4" height="32.0" fill="#fff"/>
<rect x="878.6" y="167.0" width="156.5" height="141.8" fill="#fff"/>
<path d="M882.6,241.5 L1031.1,241.5 L1031.1,253.5 q-8.0,8.0 -16.0,0 q-8.0,8.0 -16.0,0 q-8.0,8.0 -16.0,0 q-8.0,8.0 -16.0,0 q-8.0,8.0 -16.0,0 q-8.0,8.0 -16.0,0 q-8.0,8.0 -16.0,0 q-8.0,8.0 -16.0,0 q-8.0,8.0 -16.0,0 L882.6,241.5 Z" fill="#fff"/>
<line x1="898.6" y1="241.5" x2="898.6" y2="252.5"/>
<line x1="914.6" y1="241.5" x2="914.6" y2="252.5"/>
<line x1="930.6" y1="241.5" x2="930.6" y2="252.5"/>
<line x1="946.6" y1="241.5" x2="946.6" y2="252.5"/>
<line x1="962.6" y1="241.5" x2="962.6" y2="252.5"/>
<line x1="978.6" y1="241.5" x2="978.6" y2="252.5"/>
<line x1="994.6" y1="241.5" x2="994.6" y2="252.5"/>
<line x1="1010.6" y1="241.5" x2="1010.6" y2="252.5"/>
<rect x="884.6" y="181.0" width="40.2" height="13.2" fill="#fff"/>
<rect x="932.7" y="181.0" width="40.2" height="13.2" fill="#fff"/>
<rect x="980.9" y="181.0" width="40.2" height="13.2" fill="#fff"/>
<rect x="884.6" y="203.0" width="40.2" height="13.2" fill="#fff"/>
<rect x="932.7" y="203.0" width="40.2" height="13.2" fill="#fff"/>
<rect x="980.9" y="203.0" width="40.2" height="13.2" fill="#fff"/>
<rect x="884.6" y="225.0" width="40.2" height="13.2" fill="#fff"/>
<rect x="932.7" y="225.0" width="40.2" height="13.2" fill="#fff"/>
<rect x="980.9" y="225.0" width="40.2" height="13.2" fill="#fff"/>
<rect x="886.6" y="268.8" width="20.0" height="40.0" fill="#fff"/>
<rect x="914.6" y="268.8" width="112.5" height="32.0" fill="#fff"/>
<rect x="1038.2" y="166.4" width="210.9" height="142.4" fill="#fff"/>
<path d="M1042.2,237.1 L1245.2,237.1 L1245.2,249.1 q-8.0,8.0 -16.0,0 q-8.0,8.0 -16.0,0 q-8.0,8.0 -16.0,0 q-8.0,8.0 -16.0,0 q-8.0,8.0 -16.0,0 q-8.0,8.0 -16.0,0 q-8.0,8.0 -16.0,0 q-8.0,8.0 -16.0,0 q-8.0,8.0 -16.0,0 q-8.0,8.0 -16.0,0 q-8.0,8.0 -16.0,0 q-8.0,8.0 -16.0,0 L1042.2,237.1 Z" fill="#fff"/>
<line x1="1058.2" y1="237.1" x2="1058.2" y2="248.1"/>
<line x1="1074.2" y1="237.1" x2="1074.2" y2="248.1"/>
<line x1="1090.2" y1="237.1" x2="1090.2" y2="248.1"/>
<line x1="1106.2" y1="237.1" x2="1106.2" y2="248.1"/>
<line x1="1122.2" y1="237.1" x2="1122.2" y2="248.1"/>
<line x1="1138.2" y1="237.1" x2="1138.2" y2="248.1"/>
<line x1="1154.2" y1="237.1" x2="1154.2" y2="248.1"/>
<line x1="1170.2" y1="237.1" x2="1170.2" y2="248.1"/>
<line x1="1186.2" y1="237.1" x2="1186.2" y2="248.1"/>
<line x1="1202.2" y1="237.1" x2="1202.2" y2="248.1"/>
<line x1="1218.2" y1="237.1" x2="1218.2" y2="248.1"/>
<rect x="1044.2" y="180.4" width="31.8" height="13.2" fill="#fff"/>
<rect x="1084.0" y="180.4" width="31.8" height="13.2" fill="#fff"/>
<rect x="1123.8" y="180.4" width="31.8" height="13.2" fill="#fff"/>
<rect x="1163.6" y="180.4" width="31.8" height="13.2" fill="#fff"/>
<rect x="1203.4" y="180.4" width="31.8" height="13.2" fill="#fff"/>
<rect x="1044.2" y="202.4" width="31.8" height="13.2" fill="#fff"/>
<rect x="1084.0" y="202.4" width="31.8" height="13.2" fill="#fff"/>
<rect x="1123.8" y="202.4" width="31.8" height="13.2" fill="#fff"/>
<rect x="1163.6" y="202.4" width="31.8" height="13.2" fill="#fff"/>
<rect x="1203.4" y="202.4" width="31.8" height="13.2" fill="#fff"/>
<rect x="1046.2" y="268.8" width="20.0" height="40.0" fill="#fff"/>
<rect x="1074.2" y="268.8" width="166.9" height="32.0" fill="#fff"/>
<line x1="0.0" y1="310.8" x2="1200.0" y2="310.8"/>
<line x1="0.0" y1="324.8" x2="1200.0" y2="324.8"/>
<line x1="40.0" y1="372.4" x2="74.0" y2="372.4"/>
<line x1="132.0" y1="372.4" x2="166.0" y2="372.4"/>
<line x1="224.0" y1="372.4" x2="258.0" y2="372.4"/>
<line x1="316.0" y1="372.4" x2="350.0" y2="372.4"/>
<line x1="408.0" y1="372.4" x2="442.0" y2="372.4"/>
<line x1="500.0" y1="372.4" x2="534.0" y2="372.4"/>
<line x1="592.0" y1="372.4" x2="626.0" y2="372.4"/>
<line x1="684.0" y1="372.4" x2="718.0" y2="372.4"/>
<line x1="776.0" y1="372.4" x2="810.0" y2="372.4"/>
<line x1="868.0" y1="372.4" x2="902.0" y2="372.4"/>
<line x1="960.0" y1="372.4" x2="994.0" y2="372.4"/>
<line x1="1052.0" y1="372.4" x2="1086.0" y2="372.4"/>
<line x1="1144.0" y1="372.4" x2="1178.0" y2="372.4"/>
<line x1="946.4" y1="277.1" x2="946.4" y2="190.3"/>
<line x1="1113.7" y1="277.1" x2="1113.7" y2="190.3"/>
<path d="M946.4,190.3 L1113.7,190.3 L1113.7,204.3 q-9.0,9.0 -18.0,0 q-9.0,9.0 -18.0,0 q-9.0,9.0 -18.0,0 q-9.0,9.0 -18.0,0 q-9.0,9.0 -18.0,0 q-9.0,9.0 -18.0,0 q-9.0,9.0 -18.0,0 q-9.0,9.0 -18.0,0 q-9.0,9.0 -18.0,0 L946.4,190.3 Z" fill="#fff"/>
<line x1="964.4" y1="190.3" x2="964.4" y2="203.3"/>
<line x1="982.4" y1="190.3" x2="982.4" y2="203.3"/>
<line x1="1000.4" y1="190.3" x2="1000.4" y2="203.3"/>
<line x1="1018.4" y1="190.3" x2="1018.4" y2="203.3"/>
<line x1="1036.4" y1="190.3" x2="1036.4" y2="203.3"/>
<line x1="1054.4" y1="190.3" x2="1054.4" y2="203.3"/>
<line x1="1072.4" y1="190.3" x2="1072.4" y2="203.3"/>
<line x1="1090.4" y1="190.3" x2="1090.4" y2="203.3"/>
<rect x="954.4" y="277.1" width="151.3" height="10.0" fill="#fff"/>
<line x1="960.4" y1="287.1" x2="960.4" y2="310.8"/>
<line x1="1099.7" y1="287.1" x2="1099.7" y2="310.8"/>
<circle cx="962.4" cy="273.1" r="4.0" fill="none"/>
<circle cx="979.3" cy="273.1" r="4.6" fill="none"/>
<circle cx="996.2" cy="273.1" r="5.0" fill="none"/>
<circle cx="1013.1" cy="273.1" r="3.7" fill="none"/>
<circle cx="1030.0" cy="273.1" r="3.8" fill="none"/>
<circle cx="1047.0" cy="273.1" r="4.8" fill="none"/>
<circle cx="1063.9" cy="273.1" r="4.2" fill="none"/>
<circle cx="1080.8" cy="273.1" r="3.9" fill="none"/>
<rect x="262.3" y="292.8" width="12.0" height="18.0" fill="#fff"/>
<path d="M262.3,292.8 q6,-6 12,0" fill="#fff"/>
<line x1="259.3" y1="298.8" x2="277.3" y2="298.8"/>
<circle cx="268.3" cy="297.8" r="2.5" fill="none"/>
<line x1="386.9" y1="310.8" x2="386.9" y2="169.5"/>
<path d="M386.9,169.5 q18.0,0 20.0,16.0" fill="none"/>
<path d="M406.9,185.5 l-5.0,12.0 l10.0,0 Z" fill="#fff"/>
<circle cx="54.7" cy="219.7" r="9.0" fill="none"/>
<line x1="43.4" y1="216.5" x2="66.0" y2="216.5"/>
<path d="M45.2,216.5 Q54.7,201.2 64.2,216.5" fill="#fff"/>
<path d="M44.6,230.9 Q54.7,225.5 64.8,230.9 L69.2,273.5 Q54.7,276.7 40.3,273.5 Z" fill="#fff"/>
<line x1="49.4" y1="273.5" x2="45.7" y2="317.0"/>
<line x1="60.1" y1="273.5" x2="61.6" y2="317.0"/>
<line x1="45.7" y1="317.0" x2="51.5" y2="317.0"/>
<line x1="61.6" y1="317.0" x2="67.4" y2="317.0"/>
<circle cx="194.1" cy="244.0" r="6.9" fill="none"/>
<path d="M186.4,252.5 Q194.1,248.4 201.8,252.5 L204.9,283.7 Q194.1,286.1 183.3,283.7 Z" fill="#fff"/>
<line x1="190.0" y1="283.7" x2="193.3" y2="318.1"/>
<line x1="198.1" y1="283.7" x2="196.8" y2="318.1"/>
<line x1="193.3" y1="318.1" x2="188.9" y2="318.1"/>
<line x1="196.8" y1="318.1" x2="192.4" y2="318.1"/>
<line x1="189.9" y1="256.5" x2="184.4" y2="272.1"/>
<rect x="180.7" y="272.1" width="7.3" height="9.7" fill="#fff"/>
<path d="M182.1,272.1 q2.3,-3.2 4.5,0" fill="none"/>
<circle cx="347.2" cy="221.4" r="8.9" fill="none"/>
<path d="M337.3,232.4 Q347.2,227.2 357.1,232.4 L362.7,278.2 Q347.2,281.3 331.6,278.2 Z" fill="#fff"/>
<line x1="341.9" y1="278.2" x2="347.3" y2="316.8"/>
<line x1="352.4" y1="278.2" x2="350.2" y2="316.8"/>
<line x1="347.3" y1="316.8" x2="341.5" y2="316.8"/>
<line x1="350.2" y1="316.8" x2="344.5" y2="316.8"/>
<circle cx="444.0" cy="232.2" r="7.5" fill="none"/>
<path d="M435.6,241.5 Q444.0,237.1 452.4,241.5 L457.2,275.5 Q444.0,278.1 430.8,275.5 Z" fill="#fff"/>
<line x1="439.6" y1="275.5" x2="435.2" y2="312.9"/>
<line x1="448.4" y1="275.5" x2="450.2" y2="312.9"/>
<line x1="435.2" y1="312.9" x2="440.0" y2="312.9"/>
<line x1="450.2" y1="312.9" x2="455.0" y2="312.9"/>
<circle cx="576.9" cy="215.9" r="9.4" fill="none"/>
<line x1="565.1" y1="212.6" x2="588.6" y2="212.6"/>
<path d="M567.0,212.6 Q576.9,196.6 586.7,212.6" fill="#fff"/>
<path d="M566.4,227.5 Q576.9,221.9 587.4,227.5 L592.8,268.7 Q576.9,272.0 560.9,268.7 Z" fill="#fff"/>
<line x1="571.3" y1="268.7" x2="575.9" y2="316.9"/>
<line x1="582.4" y1="268.7" x2="580.6" y2="316.9"/>
<line x1="575.9" y1="316.9" x2="569.8" y2="316.9"/>
<line x1="580.6" y1="316.9" x2="574.5" y2="316.9"/>
<circle cx="700.0" cy="233.4" r="7.8" fill="none"/>
<path d="M691.3,243.0 Q700.0,238.4 708.8,243.0 L713.4,283.6 Q700.0,286.3 686.7,283.6 Z" fill="#fff"/>
<line x1="695.5" y1="283.6" x2="691.1" y2="317.4"/>
<line x1="704.6" y1="283.6" x2="706.4" y2="317.4"/>
<line x1="691.1" y1="317.4" x2="696.2" y2="317.4"/>
<line x1="706.4" y1="317.4" x2="711.4" y2="317.4"/>
<line x1="704.8" y1="247.6" x2="712.1" y2="267.9"/>
<rect x="708.0" y="267.9" width="8.3" height="11.0" fill="#fff"/>
<path d="M709.5,267.9 q2.6,-3.7 5.1,0" fill="none"/>
<circle cx="866.6" cy="214.3" r="9.7" fill="none"/>
<path d="M855.7,226.3 Q866.6,220.6 877.5,226.3 L883.5,273.6 Q866.6,277.1 849.7,273.6 Z" fill="#fff"/>
<line x1="860.9" y1="273.6" x2="856.9" y2="319.0"/>
<line x1="872.3" y1="273.6" x2="873.9" y2="319.0"/>
<line x1="856.9" y1="319.0" x2="863.2" y2="319.0"/>
<line x1="873.9" y1="319.0" x2="880.2" y2="319.0"/>
<circle cx="968.1" cy="244.1" r="6.9" fill="none"/>
<line x1="959.4" y1="241.7" x2="976.7" y2="241.7"/>
<path d="M960.8,241.7 Q968.1,229.9 975.3,241.7" fill="#fff"/>
<path d="M960.3,252.7 Q968.1,248.6 975.8,252.7 L979.6,288.0 Q968.1,290.5 956.5,288.0 Z" fill="#fff"/>
<line x1="964.0" y1="288.0" x2="966.8" y2="318.8"/>
<line x1="972.1" y1="288.0" x2="971.0" y2="318.8"/>
<line x1="966.8" y1="318.8" x2="962.3" y2="318.8"/>
<line x1="971.0" y1="318.8" x2="966.5" y2="318.8"/>
<circle cx="1105.9" cy="238.6" r="7.1" fill="none"/>
<path d="M1098.0,247.4 Q1105.9,243.2 1113.9,247.4 L1116.9,285.0 Q1105.9,287.5 1094.9,285.0 Z" fill="#fff"/>
<line x1="1101.7" y1="285.0" x2="1105.8" y2="315.2"/>
<line x1="1110.1" y1="285.0" x2="1108.5" y2="315.2"/>
<line x1="1105.8" y1="315.2" x2="1101.2" y2="315.2"/>
<line x1="1108.5" y1="315.2" x2="1103.9" y2="315.2"/></g></svg>
