<svg xmlns="http://www.w3.org/2000/svg" viewBox="0 0 1200 420" role="img" aria-label="NYC street life — line drawing"><title>NYC street life — line drawing</title><rect width="1200" height="420" fill="#ffffff"/><g stroke="#141414" stroke-width="2.1" fill="none" stroke-linecap="round" stroke-linejoin="round"><rect x="3.4" y="212.3" width="158.2" height="96.5" fill="#fff"/>
<path d="M7.4,252.3 L157.6,252.3 L157.6,264.3 q-8.0,8.0 -16.0,0 q-8.0,8.0 -16.0,0 q-8.0,8.0 -16.0,0 q-8.0,8.0 -16.0,0 q-8.0,8.0 -16.0,0 q-8.0,8.0 -16.0,0 q-8.0,8.0 -16.0,0 q-8.0,8.0 -16.0,0 q-8.0,8.0 -16.0,0 L7.4,252.3 Z" fill="#fff"/>
<line x1="23.4" y1="252.3" x2="23.4" y2="263.3"/>
<line x1="39.4" y1="252.3" x2="39.4" y2="263.3"/>
<line x1="55.4" y1="252.3" x2="55.4" y2="263.3"/>
<line x1="71.4" y1="252.3" x2="71.4" y2="263.3"/>
<line x1="87.4" y1="252.3" x2="87.4" y2="263.3"/>
<line x1="103.4" y1="252.3" x2="103.4" y2="263.3"/>
<line x1="119.4" y1="252.3" x2="119.4" y2="263.3"/>
<line x1="135.4" y1="252.3" x2="135.4" y2="263.3"/>
<rect x="9.4" y="226.3" width="40.7" height="13.2" fill="#fff"/>
<rect x="58.1" y="226.3" width="40.7" height="13.2" fill="#fff"/>
<rect x="106.9" y="226.3" width="40.7" height="13.2" fill="#fff"/>
<rect x="11.4" y="268.8" width="20.0" height="40.0" fill="#fff"/>
<rect x="39.4" y="268.8" width="114.2" height="32.0" fill="#fff"/>
<rect x="164.1" y="203.1" width="230.8" height="105.7" fill="#fff"/>
<path d="M168.1,255.5 L390.8,255.5 L390.8,267.5 q-8.0,8.0 -16.0,0 q-8.0,8.0 -16.0,0 q-8.0,8.0 -16.0,0 q-8.0,8.0 -16.0,0 q-8.0,8.0 -16.0,0 q-8.0,8.0 -16.0,0 q-8.0,8.0 -16.0,0 q-8.0,8.0 -16.0,0 q-8.0,8.0 -16.0,0 q-8.0,8.0 -16.0,0 q-8.0,8.0 -16.0,0 q-8.0,8.0 -16.0,0 q-8.0,8.0 -16.0,0 L168.1,255.5 Z" fill="#fff"/>
<line x1="184.1" y1="255.5" x2="184.1" y2="266.5"/>
<line x1="200.1" y1="255.5" x2="200.1" y2="266.5"/>
<line x1="216.1" y1="255.5" x2="216.1" y2="266.5"/>
<line x1="232.1" y1="255.5" x2="232.1" y2="266.5"/>
<line x1="248.1" y1="255.5" x2="248.1" y2="266.5"/>
<line x1="264.1" y1="255.5" x2="264.1" y2="266.5"/>
<line x1="280.1" y1="255.5" x2="280.1" y2="266.5"/>
<line x1="296.1" y1="255.5" x2="296.1" y2="266.5"/>
<line x1="312.1" y1="255.5" x2="312.1" y2="266.5"/>
<line x1="328.1" y1="255.5" x2="328.1" y2="266.5"/>
<line x1="344.1" y1="255.5" x2="344.1" y2="266.5"/>
<line x1="360.1" y1="255.5" x2="360.1" y2="266.5"/>
<rect x="170.1" y="217.1" width="35.8" height="13.2" fill="#fff"/>
<rect x="213.8" y="217.1" width="35.8" height="13.2" fill="#fff"/>
<rect x="257.6" y="217.1" width="35.8" height="13.2" fill="#fff"/>
<rect x="301.3" y="217.1" width="35.8" height="13.2" fill="#fff"/>
<rect x="345.1" y="217.1" width="35.8" height="13.2" fill="#fff"/>
<rect x="170.1" y="239.1" width="35.8" height="13.2" fill="#fff"/>
<rect x="213.8" y="239.1" width="35.8" height="13.2" fill="#fff"/>
<rect x="257.6" y="239.1" width="35.8" height="13.2" fill="#fff"/>
<rect x="301.3" y="239.1" width="35.8" height="13.2" fill="#fff"/>
<rect x="345.1" y="239.1" width="35.8" height="13.2" fill="#fff"/>
<rect x="172.1" y="268.8" width="20.0" height="40.0" fill="#fff"/>
<rect x="200.1" y="268.8" width="186.8" height="32.0" fill="#fff"/>
<rect x="400.6" y="213.9" width="218.0" height="94.9" fill="#fff"/>
<path d="M404.6,251.0 L614.6,251.0 L614.6,263.0 q-8.0,8.0 -16.0,0 q-8.0,8.0 -16.0,0 q-8.0,8.0 -16.0,0 q-8.0,8.0 -16.0,0 q-8.0,8.0 -16.0,0 q-8.0,8.0 -16.0,0 q-8.0,8.0 -16.0,0 q-8.0,8.0 -16.0,0 q-8.0,8.0 -16.0,0 q-8.0,8.0 -16.0,0 q-8.0,8.0 -16.0,0 q-8.0,8.0 -16.0,0 q-8.0,8.0 -16.0,0 L404.6,251.0 Z" fill="#fff"/>
<line x1="420.6" y1="251.0" x2="420.6" y2="262.0"/>
<line x1="436.6" y1="251.0" x2="436.6" y2="262.0"/>
<line x1="452.6" y1="251.0" x2="452.6" y2="262.0"/>
<line x1="468.6" y1="251.0" x2="468.6" y2="262.0"/>
<line x1="484.6" y1="251.0" x2="484.6" y2="262.0"/>
<line x1="500.6" y1="251.0" x2="500.6" y2="262.0"/>
<line x1="516.6" y1="251.0" x2="516.6" y2="262.0"/>
<line x1="532.6" y1="251.0" x2="532.6" y2="262.0"/>
<line x1="548.6" y1="251.0" x2="548.6" y2="262.0"/>
<line x1="564.6" y1="251.0" x2="564.6" y2="262.0"/>
<line x1="580.6" y1="251.0" x2="580.6" y2="262.0"/>
<line x1="596.6" y1="251.0" x2="596.6" y2="262.0"/>
<rect x="406.6" y="227.9" width="33.2" height="13.2" fill="#fff"/>
<rect x="447.8" y="227.9" width="33.2" height="13.2" fill="#fff"/>
<rect x="489.0" y="227.9" width="33.2" height="13.2" fill="#fff"/>
<rect x="530.2" y="227.9" width="33.2" height="13.2" fill="#fff"/>
<rect x="571.4" y="227.9" width="33.2" height="13.2" fill="#fff"/>
<rect x="408.6" y="268.8" width="20.0" height="40.0" fill="#fff"/>
<rect x="436.6" y="268.8" width="174.0" height="32.0" fill="#fff"/>
<rect x="623.3" y="205.6" width="190.6" height="103.2" fill="#fff"/>
<path d="M627.3,247.7 L809.9,247.7 L809.9,259.7 q-8.0,8.0 -16.0,0 q-8.0,8.0 -16.0,0 q-8.0,8.0 -16.0,0 q-8.0,8.0 -16.0,0 q-8.0,8.0 -16.0,0 q-8.0,8.0 -16.0,0 q-8.0,8.0 -16.0,0 q-8.0,8.0 -16.0,0 q-8.0,8.0 -16.0,0 q-8.0,8.0 -16.0,0 q-8.0,8.0 -16.0,0 L627.3,247.7 Z" fill="#fff"/>
<line x1="643.3" y1="247.7" x2="643.3" y2="258.7"/>
<line x1="659.3" y1="247.7" x2="659.3" y2="258.7"/>
<line x1="675.3" y1="247.7" x2="675.3" y2="258.7"/>
<line x1="691.3" y1="247.7" x2="691.3" y2="258.7"/>
<line x1="707.3" y1="247.7" x2="707.3" y2="258.7"/>
<line x1="723.3" y1="247.7" x2="723.3" y2="258.7"/>
<line x1="739.3" y1="247.7" x2="739.3" y2="258.7"/>
<line x1="755.3" y1="247.7" x2="755.3" y2="258.7"/>
<line x1="771.3" y1="247.7" x2="771.3" y2="258.7"/>
<line x1="787.3" y1="247.7" x2="787.3" y2="258.7"/>
<rect x="629.3" y="219.6" width="36.7" height="13.2" fill="#fff"/>
<rect x="673.9" y="219.6" width="36.7" height="13.2" fill="#fff"/>
<rect x="718.6" y="219.6" width="36.7" height="13.2" fill="#fff"/>
<rect x="763.3" y="219.6" width="36.7" height="13.2" fill="#fff"/>
<rect x="631.3" y="268.8" width="20.0" height="40.0" fill="#fff"/>
<rect x="659.3" y="268.8" width="146.6" height="32.0" fill="#fff"/>
<rect x="817.7" y="207.0" width="207.3" height="101.8" fill="#fff"/>
<path d="M821.7,252.1 L1021.0,252.1 L1021.0,264.1 q-8.0,8.0 -16.0,0 q-8.0,8.0 -16.0,0 q-8.0,8.0 -16.0,0 q-8.0,8.0 -16.0,0 q-8.0,8.0 -16.0,0 q-8.0,8.0 -16.0,0 q-8.0,8.0 -16.0,0 q-8.0,8.0 -16.0,0 q-8.0,8.0 -16.0,0 q-8.0,8.0 -16.0,0 q-8.0,8.0 -16.0,0 q-8.0,8.0 -16.0,0 L821.7,252.1 Z" fill="#fff"/>
<line x1="837.7" y1="252.1" x2="837.7" y2="263.1"/>
<line x1="853.7" y1="252.1" x2="853.7" y2="263.1"/>
<line x1="869.7" y1="252.1" x2="869.7" y2="263.1"/>
<line x1="885.7" y1="252.1" x2="885.7" y2="263.1"/>
<line x1="901.7" y1="252.1" x2="901.7" y2="263.1"/>
<line x1="917.7" y1="252.1" x2="917.7" y2="263.1"/>
<line x1="933.7" y1="252.1" x2="933.7" y2="263.1"/>
<line x1="949.7" y1="252.1" x2="949.7" y2="263.1"/>
<line x1="965.7" y1="252.1" x2="965.7" y2="263.1"/>
<line x1="981.7" y1="252.1" x2="981.7" y2="263.1"/>
<line x1="997.7" y1="252.1" x2="997.7" y2="263.1"/>
<rect x="823.7" y="221.0" width="31.1" height="13.2" fill="#fff"/>
<rect x="862.8" y="221.0" width="31.1" height="13.2" fill="#fff"/>
<rect x="901.8" y="221.0" width="31.1" height="13.2" fill="#fff"/>
<rect x="940.9" y="221.0" width="31.1" height="13.2" fill="#fff"/>
<rect x="979.9" y="221.0" width="31.1" height="13.2" fill="#fff"/>
<rect x="825.7" y="268.8" width="20.0" height="40.0" fill="#fff"/>
<rect x="853.7" y="268.8" width="163.3" height="32.0" fill="#fff"/>
<rect x="1030.0" y="215.2" width="199.2" height="93.6" fill="#fff"/>
<path d="M1034.0,254.2 L1225.2,254.2 L1225.2,266.2 q-8.0,8.0 -16.0,0 q-8.0,8.0 -16.0,0 q-8.0,8.0 -16.0,0 q-8.0,8.0 -16.0,0 q-8.0,8.0 -16.0,0 q-8.0,8.0 -16.0,0 q-8.0,8.0 -16.0,0 q-8.0,8.0 -16.0,0 q-8.0,8.0 -16.0,0 q-8.0,8.0 -16.0,0 q-8.0,8.0 -16.0,0 L1034.0,254.2 Z" fill="#fff"/>
<line x1="1050.0" y1="254.2" x2="1050.0" y2="265.2"/>
<line x1="1066.0" y1="254.2" x2="1066.0" y2="265.2"/>
<line x1="1082.0" y1="254.2" x2="1082.0" y2="265.2"/>
<line x1="1098.0" y1="254.2" x2="1098.0" y2="265.2"/>
<line x1="1114.0" y1="254.2" x2="1114.0" y2="265.2"/>
<line x1="1130.0" y1="254.2" x2="1130.0" y2="265.2"/>
<line x1="1146.0" y1="254.2" x2="1146.0" y2="265.2"/>
<line x1="1162.0" y1="254.2" x2="1162.0" y2="265.2"/>
<line x1="1178.0" y1="254.2" x2="1178.0" y2="265.2"/>
<line x1="1194.0" y1="254.2" x2="1194.0" y2="265.2"/>
<rect x="1036.0" y="229.2" width="38.8" height="13.2" fill="#fff"/>
<rect x="1082.8" y="229.2" width="38.8" height="13.2" fill="#fff"/>
<rect x="1129.6" y="229.2" width="38.8" height="13.2" fill="#fff"/>
<rect x="1176.4" y="229.2" width="38.8" height="13.2" fill="#fff"/>
<rect x="1038.0" y="268.8" width="20.0" height="40.0" fill="#fff"/>
<rect x="1066.0" y="268.8" width="155.2" height="32.0" fill="#fff"/>
<line x1="0.0" y1="310.8" x2="1200.0" y2="310.8"/>
<line x1="0.0" y1="324.8" x2="1200.0" y2="324.8"/>
<line x1="40.0" y1="372.4" x2="74.0" y2="372.4"/>
<line x1="132.0" y1="372.4" x2="166.0" y2="372.4"/>
<line x1="224.0" y1="372.4" x2="258.0" y2="372.4"/>
<line x1="316.0" y1="372.4" x2="350.0" y2="372.4"/>
<line x1="408.0" y1="372.4" x2="442.0" y2="372.4"/>
<line x1="500.0" y1="372.4" x2="534.0" y2="372.4"/>
<line x1="592.0" y1="372.4" x2="626.0" y2="372.4"/>
<line x1="684.0" y1="372.4" x2="718.0" y2="372.4"/>
<line x1="776.0" y1="372.4" x2="810.0" y2="372.4"/>
<line x1="868.0" y1="372.4" x2="902.0" y2="372.4"/>
<line x1="960.0" y1="372.4" x2="994.0" y2="372.4"/>
<line x1="1052.0" y1="372.4" x2="1086.0" y2="372.4"/>
<line x1="1144.0" y1="372.4" x2="1178.0" y2="372.4"/>
<line x1="520.3" y1="283.5" x2="520.3" y2="213.4"/>
<line x1="655.5" y1="283.5" x2="655.5" y2="213.4"/>
<path d="M520.3,213.4 L655.5,213.4 L655.5,227.4 q-9.0,9.0 -18.0,0 q-9.0,9.0 -18.0,0 q-9.0,9.0 -18.0,0 q-9.0,9.0 -18.0,0 q-9.0,9.0 -18.0,0 q-9.0,9.0 -18.0,0 q-9.0,9.0 -18.0,0 L520.3,213.4 Z" fill="#fff"/>
<line x1="538.3" y1="213.4" x2="538.3" y2="226.4"/>
<line x1="556.3" y1="213.4" x2="556.3" y2="226.4"/>
<line x1="574.3" y1="213.4" x2="574.3" y2="226.4"/>
<line x1="592.3" y1="213.4" x2="592.3" y2="226.4"/>
<line x1="610.3" y1="213.4" x2="610.3" y2="226.4"/>
<line x1="628.3" y1="213.4" x2="628.3" y2="226.4"/>
<rect x="528.3" y="283.5" width="119.2" height="10.0" fill="#fff"/>
<line x1="534.3" y1="293.5" x2="534.3" y2="310.8"/>
<line x1="641.5" y1="293.5" x2="641.5" y2="310.8"/>
<circle cx="536.3" cy="279.5" r="4.1" fill="none"/>
<circle cx="549.2" cy="279.5" r="5.5" fill="none"/>
<circle cx="562.1" cy="279.5" r="4.3" fill="none"/>
<circle cx="575.0" cy="279.5" r="5.1" fill="none"/>
<circle cx="587.9" cy="279.5" r="3.7" fill="none"/>
<circle cx="600.8" cy="279.5" r="5.3" fill="none"/>
<circle cx="613.7" cy="279.5" r="4.5" fill="none"/>
<circle cx="626.6" cy="279.5" r="3.9" fill="none"/>
<circle cx="639.5" cy="279.5" r="4.0" fill="none"/>
<line x1="467.6" y1="276.5" x2="467.6" y2="188.2"/>
<line x1="637.8" y1="276.5" x2="637.8" y2="188.2"/>
<path d="M467.6,188.2 L637.8,188.2 L637.8,202.2 q-9.0,9.0 -18.0,0 q-9.0,9.0 -18.0,0 q-9.0,9.0 -18.0,0 q-9.0,9.0 -18.0,0 q-9.0,9.0 -18.0,0 q-9.0,9.0 -18.0,0 q-9.0,9.0 -18.0,0 q-9.0,9.0 -18.0,0 q-9.0,9.0 -18.0,0 L467.6,188.2 Z" fill="#fff"/>
<line x1="485.6" y1="188.2" x2="485.6" y2="201.2"/>
<line x1="503.6" y1="188.2" x2="503.6" y2="201.2"/>
<line x1="521.6" y1="188.2" x2="521.6" y2="201.2"/>
<line x1="539.6" y1="188.2" x2="539.6" y2="201.2"/>
<line x1="557.6" y1="188.2" x2="557.6" y2="201.2"/>
<line x1="575.6" y1="188.2" x2="575.6" y2="201.2"/>
<line x1="593.6" y1="188.2" x2="593.6" y2="201.2"/>
<line x1="611.6" y1="188.2" x2="611.6" y2="201.2"/>
<rect x="475.6" y="276.5" width="154.2" height="10.0" fill="#fff"/>
<line x1="481.6" y1="286.5" x2="481.6" y2="310.8"/>
<line x1="623.8" y1="286.5" x2="623.8" y2="310.8"/>
<circle cx="483.6" cy="272.5" r="3.8" fill="none"/>
<circle cx="500.9" cy="272.5" r="3.5" fill="none"/>
<circle cx="518.2" cy="272.5" r="4.7" fill="none"/>
<circle cx="535.5" cy="272.5" r="4.5" fill="none"/>
<circle cx="552.7" cy="272.5" r="4.4" fill="none"/>
<circle cx="570.0" cy="272.5" r="3.9" fill="none"/>
<circle cx="587.3" cy="272.5" r="4.7" fill="none"/>
<rect x="112.9" y="292.8" width="12.0" height="18.0" fill="#fff"/>
<path d="M112.9,292.8 q6,-6 12,0" fill="#fff"/>
<line x1="109.9" y1="298.8" x2="127.9" y2="298.8"/>
<circle cx="118.9" cy="297.8" r="2.5" fill="none"/>
<line x1="17.5" y1="294.8" x2="77.5" y2="294.8"/>
<line x1="17.5" y1="282.8" x2="77.5" y2="282.8"/>
<line x1="17.5" y1="282.8" x2="17.5" y2="310.8"/>
<line x1="77.5" y1="282.8" x2="77.5" y2="310.8"/>
<line x1="17.5" y1="294.8" x2="17.5" y2="310.8"/>
<line x1="77.5" y1="294.8" x2="77.5" y2="310.8"/>
<circle cx="71.8" cy="249.3" r="5.9" fill="none"/>
<path d="M65.2,256.6 Q71.8,253.1 78.4,256.6 L80.8,287.4 Q71.8,289.5 62.8,287.4 Z" fill="#fff"/>
<line x1="68.3" y1="287.4" x2="64.8" y2="312.5"/>
<line x1="75.2" y1="287.4" x2="76.7" y2="312.5"/>
<line x1="64.8" y1="312.5" x2="68.6" y2="312.5"/>
<line x1="76.7" y1="312.5" x2="80.5" y2="312.5"/>
<line x1="75.4" y1="260.0" x2="79.9" y2="275.4"/>
<rect x="76.8" y="275.4" width="6.2" height="8.3" fill="#fff"/>
<path d="M77.9,275.4 q1.9,-2.8 3.9,0" fill="none"/>
<circle cx="158.5" cy="244.9" r="6.3" fill="none"/>
<path d="M151.4,252.7 Q158.5,249.0 165.5,252.7 L169.0,284.6 Q158.5,286.8 147.9,284.6 Z" fill="#fff"/>
<line x1="154.7" y1="284.6" x2="158.2" y2="312.9"/>
<line x1="162.2" y1="284.6" x2="160.8" y2="312.9"/>
<line x1="158.2" y1="312.9" x2="154.2" y2="312.9"/>
<line x1="160.8" y1="312.9" x2="156.7" y2="312.9"/>
<line x1="154.6" y1="257.2" x2="148.5" y2="285.3"/>
<rect x="144.0" y="286.8" width="8.9" height="5.2" fill="#fff"/>
<circle cx="246.6" cy="248.8" r="6.3" fill="none"/>
<line x1="238.7" y1="246.6" x2="254.5" y2="246.6"/>
<path d="M240.0,246.6 Q246.6,235.9 253.2,246.6" fill="#fff"/>
<path d="M239.5,256.6 Q246.6,252.9 253.6,256.6 L255.9,289.3 Q246.6,291.5 237.3,289.3 Z" fill="#fff"/>
<line x1="242.9" y1="289.3" x2="239.9" y2="316.6"/>
<line x1="250.3" y1="289.3" x2="251.5" y2="316.6"/>
<line x1="239.9" y1="316.6" x2="243.9" y2="316.6"/>
<line x1="251.5" y1="316.6" x2="255.6" y2="316.6"/>
<line x1="250.5" y1="260.3" x2="255.0" y2="276.6"/>
<rect x="251.6" y="276.6" width="6.7" height="8.9" fill="#fff"/>
<path d="M252.9,276.6 q2.1,-3.0 4.2,0" fill="none"/>
<circle cx="314.8" cy="233.0" r="8.2" fill="none"/>
<path d="M305.7,243.1 Q314.8,238.3 323.9,243.1 L326.5,279.9 Q314.8,282.8 303.1,279.9 Z" fill="#fff"/>
<line x1="310.0" y1="279.9" x2="307.0" y2="320.8"/>
<line x1="319.6" y1="279.9" x2="320.8" y2="320.8"/>
<line x1="307.0" y1="320.8" x2="312.3" y2="320.8"/>
<line x1="320.8" y1="320.8" x2="326.1" y2="320.8"/>
<circle cx="339.8" cy="241.1" r="7.4" fill="none"/>
<path d="M331.5,250.3 Q339.8,245.9 348.0,250.3 L351.2,286.1 Q339.8,288.7 328.3,286.1 Z" fill="#fff"/>
<line x1="335.4" y1="286.1" x2="340.2" y2="320.8"/>
<line x1="344.1" y1="286.1" x2="342.2" y2="320.8"/>
<line x1="340.2" y1="320.8" x2="335.4" y2="320.8"/>
<line x1="342.2" y1="320.8" x2="337.4" y2="320.8"/>
<circle cx="436.3" cy="228.6" r="8.5" fill="none"/>
<line x1="425.7" y1="225.7" x2="447.0" y2="225.7"/>
<path d="M427.4,225.7 Q436.3,211.2 445.3,225.7" fill="#fff"/>
<path d="M426.8,239.2 Q436.3,234.2 445.8,239.2 L448.5,278.4 Q436.3,281.4 424.2,278.4 Z" fill="#fff"/>
<line x1="431.3" y1="278.4" x2="426.5" y2="320.4"/>
<line x1="441.3" y1="278.4" x2="443.2" y2="320.4"/>
<line x1="426.5" y1="320.4" x2="432.0" y2="320.4"/>
<line x1="443.2" y1="320.4" x2="448.8" y2="320.4"/>
<line x1="441.5" y1="245.2" x2="447.8" y2="279.4"/>
<rect x="441.8" y="281.4" width="12.0" height="7.0" fill="#fff"/>
<circle cx="503.6" cy="241.4" r="7.4" fill="none"/>
<path d="M495.4,250.5 Q503.6,246.2 511.8,250.5 L516.8,285.3 Q503.6,287.9 490.4,285.3 Z" fill="#fff"/>
<line x1="499.3" y1="285.3" x2="494.2" y2="320.7"/>
<line x1="507.9" y1="285.3" x2="510.0" y2="320.7"/>
<line x1="494.2" y1="320.7" x2="499.0" y2="320.7"/>
<line x1="510.0" y1="320.7" x2="514.7" y2="320.7"/>
<circle cx="572.0" cy="250.1" r="6.0" fill="none"/>
<path d="M565.3,257.5 Q572.0,254.0 578.6,257.5 L581.3,284.7 Q572.0,286.8 562.7,284.7 Z" fill="#fff"/>
<line x1="568.5" y1="284.7" x2="565.9" y2="314.2"/>
<line x1="575.5" y1="284.7" x2="576.5" y2="314.2"/>
<line x1="565.9" y1="314.2" x2="569.8" y2="314.2"/>
<line x1="576.5" y1="314.2" x2="580.4" y2="314.2"/>
<circle cx="590.2" cy="253.5" r="5.6" fill="none"/>
<line x1="583.2" y1="251.5" x2="597.3" y2="251.5"/>
<path d="M584.3,251.5 Q590.2,241.9 596.1,251.5" fill="#fff"/>
<path d="M583.9,260.4 Q590.2,257.1 596.5,260.4 L598.8,288.5 Q590.2,290.4 581.6,288.5 Z" fill="#fff"/>
<line x1="586.9" y1="288.5" x2="589.5" y2="314.2"/>
<line x1="593.5" y1="288.5" x2="592.5" y2="314.2"/>
<line x1="589.5" y1="314.2" x2="585.8" y2="314.2"/>
<line x1="592.5" y1="314.2" x2="588.8" y2="314.2"/>
<line x1="586.7" y1="263.8" x2="582.5" y2="277.8"/>
<rect x="579.5" y="277.8" width="6.0" height="8.0" fill="#fff"/>
<path d="M580.6,277.8 q1.9,-2.7 3.7,0" fill="none"/>
<circle cx="707.5" cy="257.0" r="5.4" fill="none"/>
<path d="M701.5,263.6 Q707.5,260.5 713.5,263.6 L716.4,288.3 Q707.5,290.2 698.6,288.3 Z" fill="#fff"/>
<line x1="704.3" y1="288.3" x2="707.0" y2="315.1"/>
<line x1="710.7" y1="288.3" x2="709.6" y2="315.1"/>
<line x1="707.0" y1="315.1" x2="703.5" y2="315.1"/>
<line x1="709.6" y1="315.1" x2="706.1" y2="315.1"/>
<circle cx="769.3" cy="246.8" r="6.7" fill="none"/>
<path d="M761.8,255.1 Q769.3,251.1 776.9,255.1 L779.3,288.1 Q769.3,290.5 759.4,288.1 Z" fill="#fff"/>
<line x1="765.4" y1="288.1" x2="767.8" y2="319.1"/>
<line x1="773.3" y1="288.1" x2="772.3" y2="319.1"/>
<line x1="767.8" y1="319.1" x2="763.4" y2="319.1"/>
<line x1="772.3" y1="319.1" x2="768.0" y2="319.1"/>
<circle cx="886.1" cy="252.0" r="6.1" fill="none"/>
<path d="M879.2,259.5 Q886.1,255.9 892.9,259.5 L896.3,287.3 Q886.1,289.5 875.9,287.3 Z" fill="#fff"/>
<line x1="882.5" y1="287.3" x2="885.9" y2="318.0"/>
<line x1="889.7" y1="287.3" x2="888.3" y2="318.0"/>
<line x1="885.9" y1="318.0" x2="882.0" y2="318.0"/>
<line x1="888.3" y1="318.0" x2="884.3" y2="318.0"/>
<circle cx="978.0" cy="254.2" r="5.7" fill="none"/>
<line x1="971.0" y1="252.3" x2="985.1" y2="252.3"/>
<path d="M972.1,252.3 Q978.0,242.7 984.0,252.3" fill="#fff"/>
<path d="M971.7,261.2 Q978.0,257.9 984.4,261.2 L987.1,291.1 Q978.0,293.1 969.0,291.1 Z" fill="#fff"/>
<line x1="974.7" y1="291.1" x2="976.8" y2="315.1"/>
<line x1="981.4" y1="291.1" x2="980.5" y2="315.1"/>
<line x1="976.8" y1="315.1" x2="973.1" y2="315.1"/>
<line x1="980.5" y1="315.1" x2="976.9" y2="315.1"/>
<circle cx="1066.1" cy="241.4" r="7.3" fill="none"/>
<path d="M1058.0,250.4 Q1066.1,246.1 1074.2,250.4 L1077.9,282.6 Q1066.1,285.1 1054.3,282.6 Z" fill="#fff"/>
<line x1="1061.8" y1="282.6" x2="1057.3" y2="319.8"/>
<line x1="1070.4" y1="282.6" x2="1072.2" y2="319.8"/>
<line x1="1057.3" y1="319.8" x2="1062.1" y2="319.8"/>
<line x1="1072.2" y1="319.8" x2="1076.9" y2="319.8"/>
<circle cx="1151.9" cy="241.1" r="7.3" fill="none"/>
<path d="M1143.8,250.1 Q1151.9,245.8 1160.0,250.1 L1164.3,282.9 Q1151.9,285.5 1139.5,282.9 Z" fill="#fff"/>
<line x1="1147.6" y1="282.9" x2="1142.7" y2="319.5"/>
<line x1="1156.2" y1="282.9" x2="1158.1" y2="319.5"/>
<line x1="1142.7" y1="319.5" x2="1147.4" y2="319.5"/>
<line x1="1158.1" y1="319.5" x2="1162.8" y2="319.5"/>
<line x1="1156.4" y1="254.4" x2="1163.1" y2="270.8"/>
<rect x="1159.2" y="270.8" width="7.7" height="10.3" fill="#fff"/>
<path d="M1160.7,270.8 q2.4,-3.4 4.8,0" fill="none"/>
<circle cx="1174.2" cy="243.5" r="7.1" fill="none"/>
<line x1="1165.3" y1="241.0" x2="1183.0" y2="241.0"/>
<path d="M1166.7,241.0 Q1174.2,229.0 1181.6,241.0" fill="#fff"/>
<path d="M1166.3,252.2 Q1174.2,248.0 1182.0,252.2 L1186.5,284.7 Q1174.2,287.2 1161.8,284.7 Z" fill="#fff"/>
<line x1="1170.0" y1="284.7" x2="1174.8" y2="319.5"/>
<line x1="1178.3" y1="284.7" x2="1176.4" y2="319.5"/>
<line x1="1174.8" y1="319.5" x2="1170.3" y2="319.5"/>
<line x1="1176.4" y1="319.5" x2="1171.8" y2="319.5"/></g></svg>
