<svg xmlns="http://www.w3.org/2000/svg" viewBox="0 0 1200 420" role="img" aria-label="NYC skyline — line drawing"><title>NYC skyline — line drawing</title><rect width="1200" height="420" fill="#ffffff"/><g stroke="#141414" stroke-width="2.1" fill="none" stroke-linecap="round" stroke-linejoin="round"><circle cx="957.6" cy="62.5" r="33.0" fill="none"/>
<path d="M295.7,108.4 Q299.7,102.8 303.7,108.4 Q307.7,102.8 311.7,108.4" fill="none"/>
<path d="M301.8,111.4 Q306.7,104.5 311.6,111.4 Q316.5,104.5 321.5,111.4" fill="none"/>
<rect x="-0.4" y="248.8" width="67.3" height="87.2" fill="#fff"/>
<rect x="5.5" y="258.4" width="9.9" height="8.8" fill="#fff"/>
<rect x="22.3" y="258.4" width="9.9" height="8.8" fill="#fff"/>
<rect x="39.1" y="258.4" width="9.9" height="8.8" fill="#fff"/>
<rect x="56.0" y="258.4" width="9.9" height="8.8" fill="#fff"/>
<rect x="5.5" y="274.4" width="9.9" height="8.8" fill="#fff"/>
<rect x="22.3" y="274.4" width="9.9" height="8.8" fill="#fff"/>
<rect x="39.1" y="274.4" width="9.9" height="8.8" fill="#fff"/>
<rect x="56.0" y="274.4" width="9.9" height="8.8" fill="#fff"/>
<rect x="5.5" y="290.4" width="9.9" height="8.8" fill="#fff"/>
<rect x="22.3" y="290.4" width="9.9" height="8.8" fill="#fff"/>
<rect x="39.1" y="290.4" width="9.9" height="8.8" fill="#fff"/>
<rect x="56.0" y="290.4" width="9.9" height="8.8" fill="#fff"/>
<rect x="5.5" y="306.4" width="9.9" height="8.8" fill="#fff"/>
<rect x="22.3" y="306.4" width="9.9" height="8.8" fill="#fff"/>
<rect x="39.1" y="306.4" width="9.9" height="8.8" fill="#fff"/>
<rect x="56.0" y="306.4" width="9.9" height="8.8" fill="#fff"/>
<rect x="25.2" y="315.2" width="16.0" height="20.8" fill="#fff"/>
<line x1="20.2" y1="236.8" x2="21.5" y2="248.8"/>
<line x1="28.9" y1="236.8" x2="29.3" y2="248.8"/>
<line x1="37.6" y1="236.8" x2="37.1" y2="248.8"/>
<line x1="46.2" y1="236.8" x2="44.9" y2="248.8"/>
<line x1="20.2" y1="236.8" x2="46.2" y2="236.8"/>
<path d="M20.2,236.8 L23.2,210.8 L43.2,210.8 L46.2,236.8 Z" fill="#fff"/>
<path d="M23.2,210.8 L33.2,199.8 L43.2,210.8" fill="#fff"/>
<rect x="73.3" y="243.7" width="56.1" height="92.3" fill="#fff"/>
<line x1="101.3" y1="243.7" x2="101.3" y2="214.0"/>
<line x1="76.3" y1="261.7" x2="126.3" y2="261.7"/>
<line x1="76.3" y1="279.7" x2="126.3" y2="279.7"/>
<line x1="76.3" y1="297.7" x2="126.3" y2="297.7"/>
<line x1="76.3" y1="315.7" x2="126.3" y2="315.7"/>
<line x1="92.0" y1="248.7" x2="92.0" y2="333.0"/>
<line x1="110.7" y1="248.7" x2="110.7" y2="333.0"/>
<rect x="93.5" y="315.6" width="15.7" height="20.4" fill="#fff"/>
<line x1="88.3" y1="231.7" x2="89.6" y2="243.7"/>
<line x1="97.0" y1="231.7" x2="97.4" y2="243.7"/>
<line x1="105.6" y1="231.7" x2="105.2" y2="243.7"/>
<line x1="114.3" y1="231.7" x2="113.0" y2="243.7"/>
<line x1="88.3" y1="231.7" x2="114.3" y2="231.7"/>
<path d="M88.3,231.7 L91.3,205.7 L111.3,205.7 L114.3,231.7 Z" fill="#fff"/>
<path d="M91.3,205.7 L101.3,194.7 L111.3,205.7" fill="#fff"/>
<rect x="135.4" y="207.7" width="94.9" height="128.3" fill="#fff"/>
<line x1="138.4" y1="225.7" x2="227.3" y2="225.7"/>
<line x1="138.4" y1="243.7" x2="227.3" y2="243.7"/>
<line x1="138.4" y1="261.7" x2="227.3" y2="261.7"/>
<line x1="138.4" y1="279.7" x2="227.3" y2="279.7"/>
<line x1="138.4" y1="297.7" x2="227.3" y2="297.7"/>
<line x1="138.4" y1="315.7" x2="227.3" y2="315.7"/>
<line x1="154.4" y1="212.7" x2="154.4" y2="333.0"/>
<line x1="173.4" y1="212.7" x2="173.4" y2="333.0"/>
<line x1="192.4" y1="212.7" x2="192.4" y2="333.0"/>
<line x1="211.4" y1="212.7" x2="211.4" y2="333.0"/>
<rect x="174.9" y="315.2" width="16.0" height="20.8" fill="#fff"/>
<rect x="235.3" y="179.2" width="91.8" height="156.8" fill="#fff"/>
<rect x="259.3" y="170.2" width="43.8" height="9.0" fill="#fff"/>
<line x1="238.3" y1="199.2" x2="324.1" y2="199.2"/>
<line x1="238.3" y1="219.2" x2="324.1" y2="219.2"/>
<line x1="238.3" y1="239.2" x2="324.1" y2="239.2"/>
<line x1="238.3" y1="259.2" x2="324.1" y2="259.2"/>
<line x1="238.3" y1="279.2" x2="324.1" y2="279.2"/>
<line x1="238.3" y1="299.2" x2="324.1" y2="299.2"/>
<line x1="238.3" y1="319.2" x2="324.1" y2="319.2"/>
<line x1="253.6" y1="184.2" x2="253.6" y2="333.0"/>
<line x1="272.0" y1="184.2" x2="272.0" y2="333.0"/>
<line x1="290.3" y1="184.2" x2="290.3" y2="333.0"/>
<line x1="308.7" y1="184.2" x2="308.7" y2="333.0"/>
<rect x="273.2" y="315.2" width="16.0" height="20.8" fill="#fff"/>
<line x1="268.2" y1="167.2" x2="269.5" y2="179.2"/>
<line x1="276.8" y1="167.2" x2="277.3" y2="179.2"/>
<line x1="285.5" y1="167.2" x2="285.1" y2="179.2"/>
<line x1="294.2" y1="167.2" x2="292.9" y2="179.2"/>
<line x1="268.2" y1="167.2" x2="294.2" y2="167.2"/>
<path d="M268.2,167.2 L271.2,141.2 L291.2,141.2 L294.2,167.2 Z" fill="#fff"/>
<path d="M271.2,141.2 L281.2,130.2 L291.2,141.2" fill="#fff"/>
<rect x="327.6" y="179.1" width="46.4" height="156.9" fill="#fff"/>
<line x1="350.8" y1="179.1" x2="350.8" y2="162.2"/>
<line x1="330.6" y1="199.1" x2="370.9" y2="199.1"/>
<line x1="330.6" y1="219.1" x2="370.9" y2="219.1"/>
<line x1="330.6" y1="239.1" x2="370.9" y2="239.1"/>
<line x1="330.6" y1="259.1" x2="370.9" y2="259.1"/>
<line x1="330.6" y1="279.1" x2="370.9" y2="279.1"/>
<line x1="330.6" y1="299.1" x2="370.9" y2="299.1"/>
<line x1="330.6" y1="319.1" x2="370.9" y2="319.1"/>
<line x1="350.8" y1="184.1" x2="350.8" y2="333.0"/>
<rect x="344.3" y="319.1" width="13.0" height="16.9" fill="#fff"/>
<rect x="371.4" y="206.8" width="73.7" height="129.2" fill="#fff"/>
<line x1="408.2" y1="206.8" x2="408.2" y2="184.8"/>
<rect x="377.8" y="217.6" width="10.8" height="9.9" fill="#fff"/>
<rect x="396.3" y="217.6" width="10.8" height="9.9" fill="#fff"/>
<rect x="414.7" y="217.6" width="10.8" height="9.9" fill="#fff"/>
<rect x="433.1" y="217.6" width="10.8" height="9.9" fill="#fff"/>
<rect x="377.8" y="235.6" width="10.8" height="9.9" fill="#fff"/>
<rect x="396.3" y="235.6" width="10.8" height="9.9" fill="#fff"/>
<rect x="414.7" y="235.6" width="10.8" height="9.9" fill="#fff"/>
<rect x="433.1" y="235.6" width="10.8" height="9.9" fill="#fff"/>
<rect x="377.8" y="253.6" width="10.8" height="9.9" fill="#fff"/>
<rect x="396.3" y="253.6" width="10.8" height="9.9" fill="#fff"/>
<rect x="414.7" y="253.6" width="10.8" height="9.9" fill="#fff"/>
<rect x="433.1" y="253.6" width="10.8" height="9.9" fill="#fff"/>
<rect x="377.8" y="271.6" width="10.8" height="9.9" fill="#fff"/>
<rect x="396.3" y="271.6" width="10.8" height="9.9" fill="#fff"/>
<rect x="414.7" y="271.6" width="10.8" height="9.9" fill="#fff"/>
<rect x="433.1" y="271.6" width="10.8" height="9.9" fill="#fff"/>
<rect x="377.8" y="289.6" width="10.8" height="9.9" fill="#fff"/>
<rect x="396.3" y="289.6" width="10.8" height="9.9" fill="#fff"/>
<rect x="414.7" y="289.6" width="10.8" height="9.9" fill="#fff"/>
<rect x="433.1" y="289.6" width="10.8" height="9.9" fill="#fff"/>
<rect x="377.8" y="307.6" width="10.8" height="9.9" fill="#fff"/>
<rect x="396.3" y="307.6" width="10.8" height="9.9" fill="#fff"/>
<rect x="414.7" y="307.6" width="10.8" height="9.9" fill="#fff"/>
<rect x="433.1" y="307.6" width="10.8" height="9.9" fill="#fff"/>
<rect x="400.2" y="315.2" width="16.0" height="20.8" fill="#fff"/>
<rect x="443.7" y="252.5" width="49.0" height="83.5" fill="#fff"/>
<line x1="446.7" y1="270.5" x2="489.7" y2="270.5"/>
<line x1="446.7" y1="288.5" x2="489.7" y2="288.5"/>
<line x1="446.7" y1="306.5" x2="489.7" y2="306.5"/>
<line x1="446.7" y1="324.5" x2="489.7" y2="324.5"/>
<line x1="468.2" y1="257.5" x2="468.2" y2="333.0"/>
<rect x="461.4" y="318.2" width="13.7" height="17.8" fill="#fff"/>
<rect x="497.5" y="212.5" width="80.2" height="123.5" fill="#fff"/>
<line x1="500.5" y1="232.5" x2="574.7" y2="232.5"/>
<line x1="500.5" y1="252.5" x2="574.7" y2="252.5"/>
<line x1="500.5" y1="272.5" x2="574.7" y2="272.5"/>
<line x1="500.5" y1="292.5" x2="574.7" y2="292.5"/>
<line x1="500.5" y1="312.5" x2="574.7" y2="312.5"/>
<line x1="517.6" y1="217.5" x2="517.6" y2="333.0"/>
<line x1="537.6" y1="217.5" x2="537.6" y2="333.0"/>
<line x1="557.6" y1="217.5" x2="557.6" y2="333.0"/>
<rect x="529.6" y="315.2" width="16.0" height="20.8" fill="#fff"/>
<rect x="579.3" y="213.5" width="82.5" height="122.5" fill="#fff"/>
<rect x="600.4" y="204.5" width="40.2" height="9.0" fill="#fff"/>
<line x1="582.3" y1="229.5" x2="658.8" y2="229.5"/>
<line x1="582.3" y1="245.5" x2="658.8" y2="245.5"/>
<line x1="582.3" y1="261.5" x2="658.8" y2="261.5"/>
<line x1="582.3" y1="277.5" x2="658.8" y2="277.5"/>
<line x1="582.3" y1="293.5" x2="658.8" y2="293.5"/>
<line x1="582.3" y1="309.5" x2="658.8" y2="309.5"/>
<line x1="582.3" y1="325.5" x2="658.8" y2="325.5"/>
<line x1="599.9" y1="218.5" x2="599.9" y2="333.0"/>
<line x1="620.6" y1="218.5" x2="620.6" y2="333.0"/>
<line x1="641.2" y1="218.5" x2="641.2" y2="333.0"/>
<rect x="612.6" y="315.2" width="16.0" height="20.8" fill="#fff"/>
<rect x="666.0" y="172.0" width="70.3" height="164.0" fill="#fff"/>
<rect x="672.1" y="181.6" width="10.3" height="8.8" fill="#fff"/>
<rect x="689.7" y="181.6" width="10.3" height="8.8" fill="#fff"/>
<rect x="707.3" y="181.6" width="10.3" height="8.8" fill="#fff"/>
<rect x="724.8" y="181.6" width="10.3" height="8.8" fill="#fff"/>
<rect x="672.1" y="197.6" width="10.3" height="8.8" fill="#fff"/>
<rect x="689.7" y="197.6" width="10.3" height="8.8" fill="#fff"/>
<rect x="707.3" y="197.6" width="10.3" height="8.8" fill="#fff"/>
<rect x="724.8" y="197.6" width="10.3" height="8.8" fill="#fff"/>
<rect x="672.1" y="213.6" width="10.3" height="8.8" fill="#fff"/>
<rect x="689.7" y="213.6" width="10.3" height="8.8" fill="#fff"/>
<rect x="707.3" y="213.6" width="10.3" height="8.8" fill="#fff"/>
<rect x="724.8" y="213.6" width="10.3" height="8.8" fill="#fff"/>
<rect x="672.1" y="229.6" width="10.3" height="8.8" fill="#fff"/>
<rect x="689.7" y="229.6" width="10.3" height="8.8" fill="#fff"/>
<rect x="707.3" y="229.6" width="10.3" height="8.8" fill="#fff"/>
<rect x="724.8" y="229.6" width="10.3" height="8.8" fill="#fff"/>
<rect x="672.1" y="245.6" width="10.3" height="8.8" fill="#fff"/>
<rect x="689.7" y="245.6" width="10.3" height="8.8" fill="#fff"/>
<rect x="707.3" y="245.6" width="10.3" height="8.8" fill="#fff"/>
<rect x="724.8" y="245.6" width="10.3" height="8.8" fill="#fff"/>
<rect x="672.1" y="261.6" width="10.3" height="8.8" fill="#fff"/>
<rect x="689.7" y="261.6" width="10.3" height="8.8" fill="#fff"/>
<rect x="707.3" y="261.6" width="10.3" height="8.8" fill="#fff"/>
<rect x="724.8" y="261.6" width="10.3" height="8.8" fill="#fff"/>
<rect x="672.1" y="277.6" width="10.3" height="8.8" fill="#fff"/>
<rect x="689.7" y="277.6" width="10.3" height="8.8" fill="#fff"/>
<rect x="707.3" y="277.6" width="10.3" height="8.8" fill="#fff"/>
<rect x="724.8" y="277.6" width="10.3" height="8.8" fill="#fff"/>
<rect x="672.1" y="293.6" width="10.3" height="8.8" fill="#fff"/>
<rect x="689.7" y="293.6" width="10.3" height="8.8" fill="#fff"/>
<rect x="707.3" y="293.6" width="10.3" height="8.8" fill="#fff"/>
<rect x="724.8" y="293.6" width="10.3" height="8.8" fill="#fff"/>
<rect x="672.1" y="309.6" width="10.3" height="8.8" fill="#fff"/>
<rect x="689.7" y="309.6" width="10.3" height="8.8" fill="#fff"/>
<rect x="707.3" y="309.6" width="10.3" height="8.8" fill="#fff"/>
<rect x="724.8" y="309.6" width="10.3" height="8.8" fill="#fff"/>
<rect x="693.1" y="315.2" width="16.0" height="20.8" fill="#fff"/>
<rect x="735.4" y="167.7" width="96.1" height="168.3" fill="#fff"/>
<line x1="783.4" y1="167.7" x2="783.4" y2="147.0"/>
<rect x="741.0" y="178.5" width="9.4" height="9.9" fill="#fff"/>
<rect x="757.0" y="178.5" width="9.4" height="9.9" fill="#fff"/>
<rect x="773.0" y="178.5" width="9.4" height="9.9" fill="#fff"/>
<rect x="789.0" y="178.5" width="9.4" height="9.9" fill="#fff"/>
<rect x="805.1" y="178.5" width="9.4" height="9.9" fill="#fff"/>
<rect x="821.1" y="178.5" width="9.4" height="9.9" fill="#fff"/>
<rect x="741.0" y="196.5" width="9.4" height="9.9" fill="#fff"/>
<rect x="757.0" y="196.5" width="9.4" height="9.9" fill="#fff"/>
<rect x="773.0" y="196.5" width="9.4" height="9.9" fill="#fff"/>
<rect x="789.0" y="196.5" width="9.4" height="9.9" fill="#fff"/>
<rect x="805.1" y="196.5" width="9.4" height="9.9" fill="#fff"/>
<rect x="821.1" y="196.5" width="9.4" height="9.9" fill="#fff"/>
<rect x="741.0" y="214.5" width="9.4" height="9.9" fill="#fff"/>
<rect x="757.0" y="214.5" width="9.4" height="9.9" fill="#fff"/>
<rect x="773.0" y="214.5" width="9.4" height="9.9" fill="#fff"/>
<rect x="789.0" y="214.5" width="9.4" height="9.9" fill="#fff"/>
<rect x="805.1" y="214.5" width="9.4" height="9.9" fill="#fff"/>
<rect x="821.1" y="214.5" width="9.4" height="9.9" fill="#fff"/>
<rect x="741.0" y="232.5" width="9.4" height="9.9" fill="#fff"/>
<rect x="757.0" y="232.5" width="9.4" height="9.9" fill="#fff"/>
<rect x="773.0" y="232.5" width="9.4" height="9.9" fill="#fff"/>
<rect x="789.0" y="232.5" width="9.4" height="9.9" fill="#fff"/>
<rect x="805.1" y="232.5" width="9.4" height="9.9" fill="#fff"/>
<rect x="821.1" y="232.5" width="9.4" height="9.9" fill="#fff"/>
<rect x="741.0" y="250.5" width="9.4" height="9.9" fill="#fff"/>
<rect x="757.0" y="250.5" width="9.4" height="9.9" fill="#fff"/>
<rect x="773.0" y="250.5" width="9.4" height="9.9" fill="#fff"/>
<rect x="789.0" y="250.5" width="9.4" height="9.9" fill="#fff"/>
<rect x="805.1" y="250.5" width="9.4" height="9.9" fill="#fff"/>
<rect x="821.1" y="250.5" width="9.4" height="9.9" fill="#fff"/>
<rect x="741.0" y="268.5" width="9.4" height="9.9" fill="#fff"/>
<rect x="757.0" y="268.5" width="9.4" height="9.9" fill="#fff"/>
<rect x="773.0" y="268.5" width="9.4" height="9.9" fill="#fff"/>
<rect x="789.0" y="268.5" width="9.4" height="9.9" fill="#fff"/>
<rect x="805.1" y="268.5" width="9.4" height="9.9" fill="#fff"/>
<rect x="821.1" y="268.5" width="9.4" height="9.9" fill="#fff"/>
<rect x="741.0" y="286.5" width="9.4" height="9.9" fill="#fff"/>
<rect x="757.0" y="286.5" width="9.4" height="9.9" fill="#fff"/>
<rect x="773.0" y="286.5" width="9.4" height="9.9" fill="#fff"/>
<rect x="789.0" y="286.5" width="9.4" height="9.9" fill="#fff"/>
<rect x="805.1" y="286.5" width="9.4" height="9.9" fill="#fff"/>
<rect x="821.1" y="286.5" width="9.4" height="9.9" fill="#fff"/>
<rect x="741.0" y="304.5" width="9.4" height="9.9" fill="#fff"/>
<rect x="757.0" y="304.5" width="9.4" height="9.9" fill="#fff"/>
<rect x="773.0" y="304.5" width="9.4" height="9.9" fill="#fff"/>
<rect x="789.0" y="304.5" width="9.4" height="9.9" fill="#fff"/>
<rect x="805.1" y="304.5" width="9.4" height="9.9" fill="#fff"/>
<rect x="821.1" y="304.5" width="9.4" height="9.9" fill="#fff"/>
<rect x="775.4" y="315.2" width="16.0" height="20.8" fill="#fff"/>
<rect x="829.9" y="246.4" width="72.6" height="89.6" fill="#fff"/>
<rect x="850.3" y="237.4" width="31.9" height="9.0" fill="#fff"/>
<line x1="832.9" y1="264.4" x2="899.5" y2="264.4"/>
<line x1="832.9" y1="282.4" x2="899.5" y2="282.4"/>
<line x1="832.9" y1="300.4" x2="899.5" y2="300.4"/>
<line x1="832.9" y1="318.4" x2="899.5" y2="318.4"/>
<line x1="848.0" y1="251.4" x2="848.0" y2="333.0"/>
<line x1="866.2" y1="251.4" x2="866.2" y2="333.0"/>
<line x1="884.3" y1="251.4" x2="884.3" y2="333.0"/>
<rect x="858.2" y="315.2" width="16.0" height="20.8" fill="#fff"/>
<rect x="907.6" y="187.9" width="58.7" height="148.1" fill="#fff"/>
<rect x="924.0" y="178.9" width="25.9" height="9.0" fill="#fff"/>
<line x1="910.6" y1="205.9" x2="963.3" y2="205.9"/>
<line x1="910.6" y1="223.9" x2="963.3" y2="223.9"/>
<line x1="910.6" y1="241.9" x2="963.3" y2="241.9"/>
<line x1="910.6" y1="259.9" x2="963.3" y2="259.9"/>
<line x1="910.6" y1="277.9" x2="963.3" y2="277.9"/>
<line x1="910.6" y1="295.9" x2="963.3" y2="295.9"/>
<line x1="910.6" y1="313.9" x2="963.3" y2="313.9"/>
<line x1="927.2" y1="192.9" x2="927.2" y2="333.0"/>
<line x1="946.7" y1="192.9" x2="946.7" y2="333.0"/>
<rect x="928.9" y="315.2" width="16.0" height="20.8" fill="#fff"/>
<rect x="969.3" y="199.9" width="102.5" height="136.1" fill="#fff"/>
<rect x="1001.2" y="190.9" width="38.7" height="9.0" fill="#fff"/>
<line x1="972.3" y1="217.9" x2="1068.8" y2="217.9"/>
<line x1="972.3" y1="235.9" x2="1068.8" y2="235.9"/>
<line x1="972.3" y1="253.9" x2="1068.8" y2="253.9"/>
<line x1="972.3" y1="271.9" x2="1068.8" y2="271.9"/>
<line x1="972.3" y1="289.9" x2="1068.8" y2="289.9"/>
<line x1="972.3" y1="307.9" x2="1068.8" y2="307.9"/>
<line x1="972.3" y1="325.9" x2="1068.8" y2="325.9"/>
<line x1="989.8" y1="204.9" x2="989.8" y2="333.0"/>
<line x1="1010.3" y1="204.9" x2="1010.3" y2="333.0"/>
<line x1="1030.8" y1="204.9" x2="1030.8" y2="333.0"/>
<line x1="1051.3" y1="204.9" x2="1051.3" y2="333.0"/>
<rect x="1012.5" y="315.2" width="16.0" height="20.8" fill="#fff"/>
<rect x="1070.7" y="269.5" width="52.8" height="66.5" fill="#fff"/>
<rect x="1076.9" y="281.5" width="10.4" height="11.0" fill="#fff"/>
<rect x="1094.5" y="281.5" width="10.4" height="11.0" fill="#fff"/>
<rect x="1112.1" y="281.5" width="10.4" height="11.0" fill="#fff"/>
<rect x="1076.9" y="301.5" width="10.4" height="11.0" fill="#fff"/>
<rect x="1094.5" y="301.5" width="10.4" height="11.0" fill="#fff"/>
<rect x="1112.1" y="301.5" width="10.4" height="11.0" fill="#fff"/>
<rect x="1089.7" y="316.8" width="14.8" height="19.2" fill="#fff"/>
<rect x="1125.1" y="233.7" width="58.8" height="102.3" fill="#fff"/>
<line x1="1154.5" y1="233.7" x2="1154.5" y2="207.7"/>
<line x1="1128.1" y1="251.7" x2="1180.9" y2="251.7"/>
<line x1="1128.1" y1="269.7" x2="1180.9" y2="269.7"/>
<line x1="1128.1" y1="287.7" x2="1180.9" y2="287.7"/>
<line x1="1128.1" y1="305.7" x2="1180.9" y2="305.7"/>
<line x1="1128.1" y1="323.7" x2="1180.9" y2="323.7"/>
<line x1="1144.7" y1="238.7" x2="1144.7" y2="333.0"/>
<line x1="1164.3" y1="238.7" x2="1164.3" y2="333.0"/>
<rect x="1146.5" y="315.2" width="16.0" height="20.8" fill="#fff"/>
<rect x="1189.3" y="269.2" width="59.2" height="66.8" fill="#fff"/>
<line x1="1218.9" y1="269.2" x2="1218.9" y2="252.5"/>
<line x1="1192.3" y1="289.2" x2="1245.5" y2="289.2"/>
<line x1="1192.3" y1="309.2" x2="1245.5" y2="309.2"/>
<line x1="1192.3" y1="329.2" x2="1245.5" y2="329.2"/>
<line x1="1209.1" y1="274.2" x2="1209.1" y2="333.0"/>
<line x1="1228.8" y1="274.2" x2="1228.8" y2="333.0"/>
<rect x="1210.9" y="315.2" width="16.0" height="20.8" fill="#fff"/>
<path d="M0,345.0 q21.7,-2.6 43.3,0 q15.7,-2.3 31.5,0 q14.3,-3.2 28.7,0 q16.1,-3.8 32.2,0 q14.8,-3.2 29.5,0 q21.2,-3.7 42.3,0 q18.0,-4.5 36.0,0 q19.3,-4.7 38.6,0 q14.7,-2.4 29.4,0 q20.4,-4.0 40.7,0 q17.3,-2.6 34.7,0 q22.6,-3.2 45.2,0 q17.2,-4.3 34.5,0 q21.5,-5.0 43.1,0 q20.2,-3.5 40.4,0 q22.7,-2.1 45.3,0 q21.0,-4.3 42.0,0 q21.7,-4.6 43.5,0 q17.5,-3.7 35.1,0 q22.0,-3.8 44.1,0 q16.5,-4.7 33.0,0 q22.5,-4.3 44.9,0 q20.2,-4.1 40.4,0 q20.8,-3.9 41.6,0 q15.4,-2.4 30.8,0 q18.4,-2.5 36.9,0 q18.4,-2.3 36.8,0 q16.9,-2.5 33.8,0 q14.7,-4.5 29.5,0 q20.2,-2.9 40.3,0 q17.0,-2.8 34.0,0 q18.2,-2.1 36.4,0 q19.7,-3.2 39.4,0" fill="none"/>
<path d="M0,355.0 q17.8,-4.9 35.6,0 q17.2,-4.9 34.4,0 q21.3,-3.9 42.6,0 q14.6,-3.6 29.2,0 q16.6,-2.5 33.1,0 q17.2,-4.9 34.4,0 q21.7,-2.3 43.5,0 q19.9,-2.8 39.7,0 q14.3,-4.3 28.6,0 q22.0,-3.9 44.0,0 q18.1,-3.9 36.2,0 q18.9,-4.0 37.9,0 q20.1,-4.5 40.2,0 q20.3,-3.0 40.6,0 q18.6,-3.2 37.3,0 q21.8,-4.1 43.7,0 q14.4,-4.8 28.8,0 q18.6,-2.9 37.3,0 q16.8,-4.6 33.7,0 q18.6,-4.3 37.3,0 q20.3,-3.9 40.5,0 q15.3,-4.4 30.5,0 q19.4,-4.4 38.8,0 q22.1,-4.6 44.3,0 q21.4,-4.5 42.9,0 q21.6,-4.0 43.1,0 q20.7,-2.1 41.5,0 q19.2,-4.2 38.3,0 q20.8,-2.9 41.6,0 q19.7,-2.1 39.5,0 q21.8,-2.3 43.6,0 q19.3,-2.9 38.7,0" fill="none"/>
<path d="M0,365.0 q17.7,-2.9 35.5,0 q16.2,-2.3 32.4,0 q15.2,-4.8 30.5,0 q22.3,-3.7 44.5,0 q19.1,-4.6 38.1,0 q16.7,-2.6 33.4,0 q16.6,-2.3 33.1,0 q16.6,-4.1 33.3,0 q20.5,-3.2 41.1,0 q19.7,-2.6 39.3,0 q14.4,-3.8 28.8,0 q15.5,-2.2 31.0,0 q14.4,-4.5 28.8,0 q16.3,-2.1 32.6,0 q19.2,-4.0 38.4,0 q21.1,-3.2 42.1,0 q15.0,-3.7 30.0,0 q20.7,-2.0 41.5,0 q19.3,-4.5 38.6,0 q22.7,-4.3 45.4,0 q16.6,-3.1 33.3,0 q22.4,-2.9 44.7,0 q19.3,-4.9 38.6,0 q15.4,-3.7 30.7,0 q20.8,-3.4 41.6,0 q17.1,-4.7 34.2,0 q18.5,-4.5 37.1,0 q16.9,-3.9 33.9,0 q21.3,-2.7 42.5,0 q20.4,-2.1 40.8,0 q18.6,-4.1 37.2,0 q14.6,-4.9 29.2,0 q16.7,-3.2 33.5,0 q21.8,-3.1 43.7,0" fill="none"/>
<path d="M0,375.0 q15.8,-4.8 31.7,0 q19.6,-3.0 39.2,0 q22.5,-4.0 45.1,0 q15.1,-4.5 30.3,0 q15.1,-2.5 30.2,0 q16.4,-2.4 32.9,0 q17.4,-4.7 34.8,0 q15.2,-4.4 30.4,0 q15.1,-4.9 30.2,0 q14.4,-2.6 28.8,0 q20.7,-3.5 41.4,0 q17.2,-3.9 34.4,0 q21.3,-5.0 42.5,0 q15.4,-2.5 30.8,0 q21.7,-4.6 43.3,0 q22.6,-2.0 45.3,0 q21.8,-3.6 43.7,0 q17.1,-3.4 34.2,0 q19.0,-3.6 37.9,0 q15.8,-2.6 31.6,0 q21.6,-3.9 43.3,0 q16.7,-4.8 33.5,0 q19.1,-2.4 38.2,0 q16.7,-4.4 33.5,0 q14.7,-2.6 29.3,0 q18.8,-4.8 37.5,0 q20.1,-2.9 40.2,0 q18.9,-2.7 37.9,0 q14.9,-2.4 29.7,0 q21.2,-3.3 42.4,0 q21.5,-3.5 43.0,0 q21.1,-3.8 42.3,0 q17.6,-3.4 35.2,0" fill="none"/>
<path d="M559.2,378.8 Q582.9,389.7 606.6,378.8 Z" fill="#fff"/>
<line x1="582.9" y1="378.8" x2="582.9" y2="351.4"/>
<path d="M582.9,351.4 L599.3,373.3 L582.9,373.3 Z" fill="#fff"/></g></svg>
