<svg xmlns="http://www.w3.org/2000/svg" viewBox="0 0 1200 420" role="img" aria-label="NYC skyline — line drawing"><title>NYC skyline — line drawing</title><rect width="1200" height="420" fill="#ffffff"/><g stroke="#141414" stroke-width="2.1" fill="none" stroke-linecap="round" stroke-linejoin="round"><circle cx="787.3" cy="105.6" r="31.2" fill="none"/>
<path d="M600.4,54.0 Q603.6,49.5 606.7,54.0 Q609.9,49.5 613.1,54.0" fill="none"/>
<path d="M399.1,106.7 Q402.1,102.4 405.2,106.7 Q408.2,102.4 411.2,106.7" fill="none"/>
<path d="M320.0,108.9 Q324.3,102.8 328.7,108.9 Q333.0,102.8 337.4,108.9" fill="none"/>
<rect x="4.4" y="263.6" width="103.5" height="72.4" fill="#fff"/>
<line x1="56.2" y1="263.6" x2="56.2" y2="244.3"/>
<rect x="10.5" y="275.6" width="10.1" height="11.0" fill="#fff"/>
<rect x="27.7" y="275.6" width="10.1" height="11.0" fill="#fff"/>
<rect x="45.0" y="275.6" width="10.1" height="11.0" fill="#fff"/>
<rect x="62.2" y="275.6" width="10.1" height="11.0" fill="#fff"/>
<rect x="79.5" y="275.6" width="10.1" height="11.0" fill="#fff"/>
<rect x="96.7" y="275.6" width="10.1" height="11.0" fill="#fff"/>
<rect x="10.5" y="295.6" width="10.1" height="11.0" fill="#fff"/>
<rect x="27.7" y="295.6" width="10.1" height="11.0" fill="#fff"/>
<rect x="45.0" y="295.6" width="10.1" height="11.0" fill="#fff"/>
<rect x="62.2" y="295.6" width="10.1" height="11.0" fill="#fff"/>
<rect x="79.5" y="295.6" width="10.1" height="11.0" fill="#fff"/>
<rect x="96.7" y="295.6" width="10.1" height="11.0" fill="#fff"/>
<rect x="10.5" y="315.6" width="10.1" height="11.0" fill="#fff"/>
<rect x="27.7" y="315.6" width="10.1" height="11.0" fill="#fff"/>
<rect x="45.0" y="315.6" width="10.1" height="11.0" fill="#fff"/>
<rect x="62.2" y="315.6" width="10.1" height="11.0" fill="#fff"/>
<rect x="79.5" y="315.6" width="10.1" height="11.0" fill="#fff"/>
<rect x="96.7" y="315.6" width="10.1" height="11.0" fill="#fff"/>
<rect x="48.2" y="315.2" width="16.0" height="20.8" fill="#fff"/>
<line x1="43.2" y1="251.6" x2="44.5" y2="263.6"/>
<line x1="51.8" y1="251.6" x2="52.3" y2="263.6"/>
<line x1="60.5" y1="251.6" x2="60.1" y2="263.6"/>
<line x1="69.2" y1="251.6" x2="67.9" y2="263.6"/>
<line x1="43.2" y1="251.6" x2="69.2" y2="251.6"/>
<path d="M43.2,251.6 L46.2,225.6 L66.2,225.6 L69.2,251.6 Z" fill="#fff"/>
<path d="M46.2,225.6 L56.2,214.6 L66.2,225.6" fill="#fff"/>
<rect x="113.5" y="209.3" width="85.4" height="126.7" fill="#fff"/>
<rect x="136.5" y="200.3" width="39.5" height="9.0" fill="#fff"/>
<rect x="119.5" y="218.9" width="10.0" height="8.8" fill="#fff"/>
<rect x="136.6" y="218.9" width="10.0" height="8.8" fill="#fff"/>
<rect x="153.6" y="218.9" width="10.0" height="8.8" fill="#fff"/>
<rect x="170.7" y="218.9" width="10.0" height="8.8" fill="#fff"/>
<rect x="187.8" y="218.9" width="10.0" height="8.8" fill="#fff"/>
<rect x="119.5" y="234.9" width="10.0" height="8.8" fill="#fff"/>
<rect x="136.6" y="234.9" width="10.0" height="8.8" fill="#fff"/>
<rect x="153.6" y="234.9" width="10.0" height="8.8" fill="#fff"/>
<rect x="170.7" y="234.9" width="10.0" height="8.8" fill="#fff"/>
<rect x="187.8" y="234.9" width="10.0" height="8.8" fill="#fff"/>
<rect x="119.5" y="250.9" width="10.0" height="8.8" fill="#fff"/>
<rect x="136.6" y="250.9" width="10.0" height="8.8" fill="#fff"/>
<rect x="153.6" y="250.9" width="10.0" height="8.8" fill="#fff"/>
<rect x="170.7" y="250.9" width="10.0" height="8.8" fill="#fff"/>
<rect x="187.8" y="250.9" width="10.0" height="8.8" fill="#fff"/>
<rect x="119.5" y="266.9" width="10.0" height="8.8" fill="#fff"/>
<rect x="136.6" y="266.9" width="10.0" height="8.8" fill="#fff"/>
<rect x="153.6" y="266.9" width="10.0" height="8.8" fill="#fff"/>
<rect x="170.7" y="266.9" width="10.0" height="8.8" fill="#fff"/>
<rect x="187.8" y="266.9" width="10.0" height="8.8" fill="#fff"/>
<rect x="119.5" y="282.9" width="10.0" height="8.8" fill="#fff"/>
<rect x="136.6" y="282.9" width="10.0" height="8.8" fill="#fff"/>
<rect x="153.6" y="282.9" width="10.0" height="8.8" fill="#fff"/>
<rect x="170.7" y="282.9" width="10.0" height="8.8" fill="#fff"/>
<rect x="187.8" y="282.9" width="10.0" height="8.8" fill="#fff"/>
<rect x="119.5" y="298.9" width="10.0" height="8.8" fill="#fff"/>
<rect x="136.6" y="298.9" width="10.0" height="8.8" fill="#fff"/>
<rect x="153.6" y="298.9" width="10.0" height="8.8" fill="#fff"/>
<rect x="170.7" y="298.9" width="10.0" height="8.8" fill="#fff"/>
<rect x="187.8" y="298.9" width="10.0" height="8.8" fill="#fff"/>
<rect x="119.5" y="314.9" width="10.0" height="8.8" fill="#fff"/>
<rect x="136.6" y="314.9" width="10.0" height="8.8" fill="#fff"/>
<rect x="153.6" y="314.9" width="10.0" height="8.8" fill="#fff"/>
<rect x="170.7" y="314.9" width="10.0" height="8.8" fill="#fff"/>
<rect x="187.8" y="314.9" width="10.0" height="8.8" fill="#fff"/>
<rect x="148.2" y="315.2" width="16.0" height="20.8" fill="#fff"/>
<rect x="203.1" y="183.8" width="76.3" height="152.2" fill="#fff"/>
<line x1="206.1" y1="203.8" x2="276.5" y2="203.8"/>
<line x1="206.1" y1="223.8" x2="276.5" y2="223.8"/>
<line x1="206.1" y1="243.8" x2="276.5" y2="243.8"/>
<line x1="206.1" y1="263.8" x2="276.5" y2="263.8"/>
<line x1="206.1" y1="283.8" x2="276.5" y2="283.8"/>
<line x1="206.1" y1="303.8" x2="276.5" y2="303.8"/>
<line x1="206.1" y1="323.8" x2="276.5" y2="323.8"/>
<line x1="222.2" y1="188.8" x2="222.2" y2="333.0"/>
<line x1="241.3" y1="188.8" x2="241.3" y2="333.0"/>
<line x1="260.4" y1="188.8" x2="260.4" y2="333.0"/>
<rect x="233.3" y="315.2" width="16.0" height="20.8" fill="#fff"/>
<line x1="228.3" y1="171.8" x2="229.6" y2="183.8"/>
<line x1="237.0" y1="171.8" x2="237.4" y2="183.8"/>
<line x1="245.6" y1="171.8" x2="245.2" y2="183.8"/>
<line x1="254.3" y1="171.8" x2="253.0" y2="183.8"/>
<line x1="228.3" y1="171.8" x2="254.3" y2="171.8"/>
<path d="M228.3,171.8 L231.3,145.8 L251.3,145.8 L254.3,171.8 Z" fill="#fff"/>
<path d="M231.3,145.8 L241.3,134.8 L251.3,145.8" fill="#fff"/>
<rect x="280.0" y="140.8" width="56.5" height="195.2" fill="#fff"/>
<line x1="283.0" y1="160.8" x2="333.6" y2="160.8"/>
<line x1="283.0" y1="180.8" x2="333.6" y2="180.8"/>
<line x1="283.0" y1="200.8" x2="333.6" y2="200.8"/>
<line x1="283.0" y1="220.8" x2="333.6" y2="220.8"/>
<line x1="283.0" y1="240.8" x2="333.6" y2="240.8"/>
<line x1="283.0" y1="260.8" x2="333.6" y2="260.8"/>
<line x1="283.0" y1="280.8" x2="333.6" y2="280.8"/>
<line x1="283.0" y1="300.8" x2="333.6" y2="300.8"/>
<line x1="283.0" y1="320.8" x2="333.6" y2="320.8"/>
<line x1="298.9" y1="145.8" x2="298.9" y2="333.0"/>
<line x1="317.7" y1="145.8" x2="317.7" y2="333.0"/>
<rect x="300.4" y="315.4" width="15.8" height="20.6" fill="#fff"/>
<rect x="336.7" y="147.1" width="70.6" height="188.9" fill="#fff"/>
<line x1="339.7" y1="165.1" x2="404.3" y2="165.1"/>
<line x1="339.7" y1="183.1" x2="404.3" y2="183.1"/>
<line x1="339.7" y1="201.1" x2="404.3" y2="201.1"/>
<line x1="339.7" y1="219.1" x2="404.3" y2="219.1"/>
<line x1="339.7" y1="237.1" x2="404.3" y2="237.1"/>
<line x1="339.7" y1="255.1" x2="404.3" y2="255.1"/>
<line x1="339.7" y1="273.1" x2="404.3" y2="273.1"/>
<line x1="339.7" y1="291.1" x2="404.3" y2="291.1"/>
<line x1="339.7" y1="309.1" x2="404.3" y2="309.1"/>
<line x1="339.7" y1="327.1" x2="404.3" y2="327.1"/>
<line x1="360.2" y1="152.1" x2="360.2" y2="333.0"/>
<line x1="383.8" y1="152.1" x2="383.8" y2="333.0"/>
<rect x="364.0" y="315.2" width="16.0" height="20.8" fill="#fff"/>
<rect x="406.9" y="213.8" width="77.8" height="122.2" fill="#fff"/>
<rect x="413.7" y="224.6" width="11.4" height="9.9" fill="#fff"/>
<rect x="433.1" y="224.6" width="11.4" height="9.9" fill="#fff"/>
<rect x="452.6" y="224.6" width="11.4" height="9.9" fill="#fff"/>
<rect x="472.0" y="224.6" width="11.4" height="9.9" fill="#fff"/>
<rect x="413.7" y="242.6" width="11.4" height="9.9" fill="#fff"/>
<rect x="433.1" y="242.6" width="11.4" height="9.9" fill="#fff"/>
<rect x="452.6" y="242.6" width="11.4" height="9.9" fill="#fff"/>
<rect x="472.0" y="242.6" width="11.4" height="9.9" fill="#fff"/>
<rect x="413.7" y="260.6" width="11.4" height="9.9" fill="#fff"/>
<rect x="433.1" y="260.6" width="11.4" height="9.9" fill="#fff"/>
<rect x="452.6" y="260.6" width="11.4" height="9.9" fill="#fff"/>
<rect x="472.0" y="260.6" width="11.4" height="9.9" fill="#fff"/>
<rect x="413.7" y="278.6" width="11.4" height="9.9" fill="#fff"/>
<rect x="433.1" y="278.6" width="11.4" height="9.9" fill="#fff"/>
<rect x="452.6" y="278.6" width="11.4" height="9.9" fill="#fff"/>
<rect x="472.0" y="278.6" width="11.4" height="9.9" fill="#fff"/>
<rect x="413.7" y="296.6" width="11.4" height="9.9" fill="#fff"/>
<rect x="433.1" y="296.6" width="11.4" height="9.9" fill="#fff"/>
<rect x="452.6" y="296.6" width="11.4" height="9.9" fill="#fff"/>
<rect x="472.0" y="296.6" width="11.4" height="9.9" fill="#fff"/>
<rect x="413.7" y="314.6" width="11.4" height="9.9" fill="#fff"/>
<rect x="433.1" y="314.6" width="11.4" height="9.9" fill="#fff"/>
<rect x="452.6" y="314.6" width="11.4" height="9.9" fill="#fff"/>
<rect x="472.0" y="314.6" width="11.4" height="9.9" fill="#fff"/>
<rect x="437.8" y="315.2" width="16.0" height="20.8" fill="#fff"/>
<rect x="490.9" y="221.0" width="91.7" height="115.0" fill="#fff"/>
<line x1="493.9" y1="239.0" x2="579.6" y2="239.0"/>
<line x1="493.9" y1="257.0" x2="579.6" y2="257.0"/>
<line x1="493.9" y1="275.0" x2="579.6" y2="275.0"/>
<line x1="493.9" y1="293.0" x2="579.6" y2="293.0"/>
<line x1="493.9" y1="311.0" x2="579.6" y2="311.0"/>
<line x1="493.9" y1="329.0" x2="579.6" y2="329.0"/>
<line x1="509.2" y1="226.0" x2="509.2" y2="333.0"/>
<line x1="527.5" y1="226.0" x2="527.5" y2="333.0"/>
<line x1="545.9" y1="226.0" x2="545.9" y2="333.0"/>
<line x1="564.2" y1="226.0" x2="564.2" y2="333.0"/>
<rect x="528.7" y="315.2" width="16.0" height="20.8" fill="#fff"/>
<rect x="589.2" y="129.1" width="48.5" height="206.9" fill="#fff"/>
<line x1="613.5" y1="129.1" x2="613.5" y2="103.8"/>
<rect x="594.9" y="138.7" width="9.5" height="8.8" fill="#fff"/>
<rect x="611.1" y="138.7" width="9.5" height="8.8" fill="#fff"/>
<rect x="627.2" y="138.7" width="9.5" height="8.8" fill="#fff"/>
<rect x="594.9" y="154.7" width="9.5" height="8.8" fill="#fff"/>
<rect x="611.1" y="154.7" width="9.5" height="8.8" fill="#fff"/>
<rect x="627.2" y="154.7" width="9.5" height="8.8" fill="#fff"/>
<rect x="594.9" y="170.7" width="9.5" height="8.8" fill="#fff"/>
<rect x="611.1" y="170.7" width="9.5" height="8.8" fill="#fff"/>
<rect x="627.2" y="170.7" width="9.5" height="8.8" fill="#fff"/>
<rect x="594.9" y="186.7" width="9.5" height="8.8" fill="#fff"/>
<rect x="611.1" y="186.7" width="9.5" height="8.8" fill="#fff"/>
<rect x="627.2" y="186.7" width="9.5" height="8.8" fill="#fff"/>
<rect x="594.9" y="202.7" width="9.5" height="8.8" fill="#fff"/>
<rect x="611.1" y="202.7" width="9.5" height="8.8" fill="#fff"/>
<rect x="627.2" y="202.7" width="9.5" height="8.8" fill="#fff"/>
<rect x="594.9" y="218.7" width="9.5" height="8.8" fill="#fff"/>
<rect x="611.1" y="218.7" width="9.5" height="8.8" fill="#fff"/>
<rect x="627.2" y="218.7" width="9.5" height="8.8" fill="#fff"/>
<rect x="594.9" y="234.7" width="9.5" height="8.8" fill="#fff"/>
<rect x="611.1" y="234.7" width="9.5" height="8.8" fill="#fff"/>
<rect x="627.2" y="234.7" width="9.5" height="8.8" fill="#fff"/>
<rect x="594.9" y="250.7" width="9.5" height="8.8" fill="#fff"/>
<rect x="611.1" y="250.7" width="9.5" height="8.8" fill="#fff"/>
<rect x="627.2" y="250.7" width="9.5" height="8.8" fill="#fff"/>
<rect x="594.9" y="266.7" width="9.5" height="8.8" fill="#fff"/>
<rect x="611.1" y="266.7" width="9.5" height="8.8" fill="#fff"/>
<rect x="627.2" y="266.7" width="9.5" height="8.8" fill="#fff"/>
<rect x="594.9" y="282.7" width="9.5" height="8.8" fill="#fff"/>
<rect x="611.1" y="282.7" width="9.5" height="8.8" fill="#fff"/>
<rect x="627.2" y="282.7" width="9.5" height="8.8" fill="#fff"/>
<rect x="594.9" y="298.7" width="9.5" height="8.8" fill="#fff"/>
<rect x="611.1" y="298.7" width="9.5" height="8.8" fill="#fff"/>
<rect x="627.2" y="298.7" width="9.5" height="8.8" fill="#fff"/>
<rect x="594.9" y="314.7" width="9.5" height="8.8" fill="#fff"/>
<rect x="611.1" y="314.7" width="9.5" height="8.8" fill="#fff"/>
<rect x="627.2" y="314.7" width="9.5" height="8.8" fill="#fff"/>
<rect x="606.7" y="318.4" width="13.6" height="17.6" fill="#fff"/>
<rect x="637.0" y="154.0" width="71.6" height="182.0" fill="#fff"/>
<line x1="640.0" y1="170.0" x2="705.6" y2="170.0"/>
<line x1="640.0" y1="186.0" x2="705.6" y2="186.0"/>
<line x1="640.0" y1="202.0" x2="705.6" y2="202.0"/>
<line x1="640.0" y1="218.0" x2="705.6" y2="218.0"/>
<line x1="640.0" y1="234.0" x2="705.6" y2="234.0"/>
<line x1="640.0" y1="250.0" x2="705.6" y2="250.0"/>
<line x1="640.0" y1="266.0" x2="705.6" y2="266.0"/>
<line x1="640.0" y1="282.0" x2="705.6" y2="282.0"/>
<line x1="640.0" y1="298.0" x2="705.6" y2="298.0"/>
<line x1="640.0" y1="314.0" x2="705.6" y2="314.0"/>
<line x1="640.0" y1="330.0" x2="705.6" y2="330.0"/>
<line x1="660.9" y1="159.0" x2="660.9" y2="333.0"/>
<line x1="684.7" y1="159.0" x2="684.7" y2="333.0"/>
<rect x="664.8" y="315.2" width="16.0" height="20.8" fill="#fff"/>
<rect x="711.7" y="166.7" width="99.9" height="169.3" fill="#fff"/>
<line x1="761.7" y1="166.7" x2="761.7" y2="144.0"/>
<rect x="717.6" y="178.7" width="9.8" height="11.0" fill="#fff"/>
<rect x="734.2" y="178.7" width="9.8" height="11.0" fill="#fff"/>
<rect x="750.9" y="178.7" width="9.8" height="11.0" fill="#fff"/>
<rect x="767.5" y="178.7" width="9.8" height="11.0" fill="#fff"/>
<rect x="784.2" y="178.7" width="9.8" height="11.0" fill="#fff"/>
<rect x="800.8" y="178.7" width="9.8" height="11.0" fill="#fff"/>
<rect x="717.6" y="198.7" width="9.8" height="11.0" fill="#fff"/>
<rect x="734.2" y="198.7" width="9.8" height="11.0" fill="#fff"/>
<rect x="750.9" y="198.7" width="9.8" height="11.0" fill="#fff"/>
<rect x="767.5" y="198.7" width="9.8" height="11.0" fill="#fff"/>
<rect x="784.2" y="198.7" width="9.8" height="11.0" fill="#fff"/>
<rect x="800.8" y="198.7" width="9.8" height="11.0" fill="#fff"/>
<rect x="717.6" y="218.7" width="9.8" height="11.0" fill="#fff"/>
<rect x="734.2" y="218.7" width="9.8" height="11.0" fill="#fff"/>
<rect x="750.9" y="218.7" width="9.8" height="11.0" fill="#fff"/>
<rect x="767.5" y="218.7" width="9.8" height="11.0" fill="#fff"/>
<rect x="784.2" y="218.7" width="9.8" height="11.0" fill="#fff"/>
<rect x="800.8" y="218.7" width="9.8" height="11.0" fill="#fff"/>
<rect x="717.6" y="238.7" width="9.8" height="11.0" fill="#fff"/>
<rect x="734.2" y="238.7" width="9.8" height="11.0" fill="#fff"/>
<rect x="750.9" y="238.7" width="9.8" height="11.0" fill="#fff"/>
<rect x="767.5" y="238.7" width="9.8" height="11.0" fill="#fff"/>
<rect x="784.2" y="238.7" width="9.8" height="11.0" fill="#fff"/>
<rect x="800.8" y="238.7" width="9.8" height="11.0" fill="#fff"/>
<rect x="717.6" y="258.7" width="9.8" height="11.0" fill="#fff"/>
<rect x="734.2" y="258.7" width="9.8" height="11.0" fill="#fff"/>
<rect x="750.9" y="258.7" width="9.8" height="11.0" fill="#fff"/>
<rect x="767.5" y="258.7" width="9.8" height="11.0" fill="#fff"/>
<rect x="784.2" y="258.7" width="9.8" height="11.0" fill="#fff"/>
<rect x="800.8" y="258.7" width="9.8" height="11.0" fill="#fff"/>
<rect x="717.6" y="278.7" width="9.8" height="11.0" fill="#fff"/>
<rect x="734.2" y="278.7" width="9.8" height="11.0" fill="#fff"/>
<rect x="750.9" y="278.7" width="9.8" height="11.0" fill="#fff"/>
<rect x="767.5" y="278.7" width="9.8" height="11.0" fill="#fff"/>
<rect x="784.2" y="278.7" width="9.8" height="11.0" fill="#fff"/>
<rect x="800.8" y="278.7" width="9.8" height="11.0" fill="#fff"/>
<rect x="717.6" y="298.7" width="9.8" height="11.0" fill="#fff"/>
<rect x="734.2" y="298.7" width="9.8" height="11.0" fill="#fff"/>
<rect x="750.9" y="298.7" width="9.8" height="11.0" fill="#fff"/>
<rect x="767.5" y="298.7" width="9.8" height="11.0" fill="#fff"/>
<rect x="784.2" y="298.7" width="9.8" height="11.0" fill="#fff"/>
<rect x="800.8" y="298.7" width="9.8" height="11.0" fill="#fff"/>
<rect x="753.7" y="315.2" width="16.0" height="20.8" fill="#fff"/>
<rect x="817.0" y="131.1" width="91.5" height="204.9" fill="#fff"/>
<rect x="823.4" y="141.9" width="10.8" height="9.9" fill="#fff"/>
<rect x="841.7" y="141.9" width="10.8" height="9.9" fill="#fff"/>
<rect x="860.0" y="141.9" width="10.8" height="9.9" fill="#fff"/>
<rect x="878.3" y="141.9" width="10.8" height="9.9" fill="#fff"/>
<rect x="896.5" y="141.9" width="10.8" height="9.9" fill="#fff"/>
<rect x="823.4" y="159.9" width="10.8" height="9.9" fill="#fff"/>
<rect x="841.7" y="159.9" width="10.8" height="9.9" fill="#fff"/>
<rect x="860.0" y="159.9" width="10.8" height="9.9" fill="#fff"/>
<rect x="878.3" y="159.9" width="10.8" height="9.9" fill="#fff"/>
<rect x="896.5" y="159.9" width="10.8" height="9.9" fill="#fff"/>
<rect x="823.4" y="177.9" width="10.8" height="9.9" fill="#fff"/>
<rect x="841.7" y="177.9" width="10.8" height="9.9" fill="#fff"/>
<rect x="860.0" y="177.9" width="10.8" height="9.9" fill="#fff"/>
<rect x="878.3" y="177.9" width="10.8" height="9.9" fill="#fff"/>
<rect x="896.5" y="177.9" width="10.8" height="9.9" fill="#fff"/>
<rect x="823.4" y="195.9" width="10.8" height="9.9" fill="#fff"/>
<rect x="841.7" y="195.9" width="10.8" height="9.9" fill="#fff"/>
<rect x="860.0" y="195.9" width="10.8" height="9.9" fill="#fff"/>
<rect x="878.3" y="195.9" width="10.8" height="9.9" fill="#fff"/>
<rect x="896.5" y="195.9" width="10.8" height="9.9" fill="#fff"/>
<rect x="823.4" y="213.9" width="10.8" height="9.9" fill="#fff"/>
<rect x="841.7" y="213.9" width="10.8" height="9.9" fill="#fff"/>
<rect x="860.0" y="213.9" width="10.8" height="9.9" fill="#fff"/>
<rect x="878.3" y="213.9" width="10.8" height="9.9" fill="#fff"/>
<rect x="896.5" y="213.9" width="10.8" height="9.9" fill="#fff"/>
<rect x="823.4" y="231.9" width="10.8" height="9.9" fill="#fff"/>
<rect x="841.7" y="231.9" width="10.8" height="9.9" fill="#fff"/>
<rect x="860.0" y="231.9" width="10.8" height="9.9" fill="#fff"/>
<rect x="878.3" y="231.9" width="10.8" height="9.9" fill="#fff"/>
<rect x="896.5" y="231.9" width="10.8" height="9.9" fill="#fff"/>
<rect x="823.4" y="249.9" width="10.8" height="9.9" fill="#fff"/>
<rect x="841.7" y="249.9" width="10.8" height="9.9" fill="#fff"/>
<rect x="860.0" y="249.9" width="10.8" height="9.9" fill="#fff"/>
<rect x="878.3" y="249.9" width="10.8" height="9.9" fill="#fff"/>
<rect x="896.5" y="249.9" width="10.8" height="9.9" fill="#fff"/>
<rect x="823.4" y="267.9" width="10.8" height="9.9" fill="#fff"/>
<rect x="841.7" y="267.9" width="10.8" height="9.9" fill="#fff"/>
<rect x="860.0" y="267.9" width="10.8" height="9.9" fill="#fff"/>
<rect x="878.3" y="267.9" width="10.8" height="9.9" fill="#fff"/>
<rect x="896.5" y="267.9" width="10.8" height="9.9" fill="#fff"/>
<rect x="823.4" y="285.9" width="10.8" height="9.9" fill="#fff"/>
<rect x="841.7" y="285.9" width="10.8" height="9.9" fill="#fff"/>
<rect x="860.0" y="285.9" width="10.8" height="9.9" fill="#fff"/>
<rect x="878.3" y="285.9" width="10.8" height="9.9" fill="#fff"/>
<rect x="896.5" y="285.9" width="10.8" height="9.9" fill="#fff"/>
<rect x="823.4" y="303.9" width="10.8" height="9.9" fill="#fff"/>
<rect x="841.7" y="303.9" width="10.8" height="9.9" fill="#fff"/>
<rect x="860.0" y="303.9" width="10.8" height="9.9" fill="#fff"/>
<rect x="878.3" y="303.9" width="10.8" height="9.9" fill="#fff"/>
<rect x="896.5" y="303.9" width="10.8" height="9.9" fill="#fff"/>
<rect x="854.7" y="315.2" width="16.0" height="20.8" fill="#fff"/>
<rect x="909.7" y="154.2" width="67.0" height="181.8" fill="#fff"/>
<line x1="943.2" y1="154.2" x2="943.2" y2="124.6"/>
<line x1="912.7" y1="170.2" x2="973.7" y2="170.2"/>
<line x1="912.7" y1="186.2" x2="973.7" y2="186.2"/>
<line x1="912.7" y1="202.2" x2="973.7" y2="202.2"/>
<line x1="912.7" y1="218.2" x2="973.7" y2="218.2"/>
<line x1="912.7" y1="234.2" x2="973.7" y2="234.2"/>
<line x1="912.7" y1="250.2" x2="973.7" y2="250.2"/>
<line x1="912.7" y1="266.2" x2="973.7" y2="266.2"/>
<line x1="912.7" y1="282.2" x2="973.7" y2="282.2"/>
<line x1="912.7" y1="298.2" x2="973.7" y2="298.2"/>
<line x1="912.7" y1="314.2" x2="973.7" y2="314.2"/>
<line x1="932.0" y1="159.2" x2="932.0" y2="333.0"/>
<line x1="954.3" y1="159.2" x2="954.3" y2="333.0"/>
<rect x="935.2" y="315.2" width="16.0" height="20.8" fill="#fff"/>
<rect x="980.8" y="253.0" width="75.3" height="83.0" fill="#fff"/>
<line x1="983.8" y1="273.0" x2="1053.1" y2="273.0"/>
<line x1="983.8" y1="293.0" x2="1053.1" y2="293.0"/>
<line x1="983.8" y1="313.0" x2="1053.1" y2="313.0"/>
<line x1="999.6" y1="258.0" x2="999.6" y2="333.0"/>
<line x1="1018.5" y1="258.0" x2="1018.5" y2="333.0"/>
<line x1="1037.3" y1="258.0" x2="1037.3" y2="333.0"/>
<rect x="1010.5" y="315.2" width="16.0" height="20.8" fill="#fff"/>
<rect x="1059.4" y="250.9" width="98.5" height="85.1" fill="#fff"/>
<rect x="1065.2" y="262.9" width="9.7" height="11.0" fill="#fff"/>
<rect x="1081.6" y="262.9" width="9.7" height="11.0" fill="#fff"/>
<rect x="1098.0" y="262.9" width="9.7" height="11.0" fill="#fff"/>
<rect x="1114.5" y="262.9" width="9.7" height="11.0" fill="#fff"/>
<rect x="1130.9" y="262.9" width="9.7" height="11.0" fill="#fff"/>
<rect x="1147.3" y="262.9" width="9.7" height="11.0" fill="#fff"/>
<rect x="1065.2" y="282.9" width="9.7" height="11.0" fill="#fff"/>
<rect x="1081.6" y="282.9" width="9.7" height="11.0" fill="#fff"/>
<rect x="1098.0" y="282.9" width="9.7" height="11.0" fill="#fff"/>
<rect x="1114.5" y="282.9" width="9.7" height="11.0" fill="#fff"/>
<rect x="1130.9" y="282.9" width="9.7" height="11.0" fill="#fff"/>
<rect x="1147.3" y="282.9" width="9.7" height="11.0" fill="#fff"/>
<rect x="1065.2" y="302.9" width="9.7" height="11.0" fill="#fff"/>
<rect x="1081.6" y="302.9" width="9.7" height="11.0" fill="#fff"/>
<rect x="1098.0" y="302.9" width="9.7" height="11.0" fill="#fff"/>
<rect x="1114.5" y="302.9" width="9.7" height="11.0" fill="#fff"/>
<rect x="1130.9" y="302.9" width="9.7" height="11.0" fill="#fff"/>
<rect x="1147.3" y="302.9" width="9.7" height="11.0" fill="#fff"/>
<rect x="1100.7" y="315.2" width="16.0" height="20.8" fill="#fff"/>
<rect x="1163.9" y="224.2" width="102.2" height="111.8" fill="#fff"/>
<rect x="1169.9" y="236.2" width="10.0" height="11.0" fill="#fff"/>
<rect x="1186.9" y="236.2" width="10.0" height="11.0" fill="#fff"/>
<rect x="1203.9" y="236.2" width="10.0" height="11.0" fill="#fff"/>
<rect x="1221.0" y="236.2" width="10.0" height="11.0" fill="#fff"/>
<rect x="1238.0" y="236.2" width="10.0" height="11.0" fill="#fff"/>
<rect x="1255.0" y="236.2" width="10.0" height="11.0" fill="#fff"/>
<rect x="1169.9" y="256.2" width="10.0" height="11.0" fill="#fff"/>
<rect x="1186.9" y="256.2" width="10.0" height="11.0" fill="#fff"/>
<rect x="1203.9" y="256.2" width="10.0" height="11.0" fill="#fff"/>
<rect x="1221.0" y="256.2" width="10.0" height="11.0" fill="#fff"/>
<rect x="1238.0" y="256.2" width="10.0" height="11.0" fill="#fff"/>
<rect x="1255.0" y="256.2" width="10.0" height="11.0" fill="#fff"/>
<rect x="1169.9" y="276.2" width="10.0" height="11.0" fill="#fff"/>
<rect x="1186.9" y="276.2" width="10.0" height="11.0" fill="#fff"/>
<rect x="1203.9" y="276.2" width="10.0" height="11.0" fill="#fff"/>
<rect x="1221.0" y="276.2" width="10.0" height="11.0" fill="#fff"/>
<rect x="1238.0" y="276.2" width="10.0" height="11.0" fill="#fff"/>
<rect x="1255.0" y="276.2" width="10.0" height="11.0" fill="#fff"/>
<rect x="1169.9" y="296.2" width="10.0" height="11.0" fill="#fff"/>
<rect x="1186.9" y="296.2" width="10.0" height="11.0" fill="#fff"/>
<rect x="1203.9" y="296.2" width="10.0" height="11.0" fill="#fff"/>
<rect x="1221.0" y="296.2" width="10.0" height="11.0" fill="#fff"/>
<rect x="1238.0" y="296.2" width="10.0" height="11.0" fill="#fff"/>
<rect x="1255.0" y="296.2" width="10.0" height="11.0" fill="#fff"/>
<rect x="1207.0" y="315.2" width="16.0" height="20.8" fill="#fff"/>
<path d="M0,345.0 q20.6,-4.6 41.2,0 q18.8,-2.9 37.5,0 q21.5,-4.8 43.1,0 q20.2,-4.9 40.4,0 q18.1,-4.6 36.2,0 q19.0,-2.6 38.0,0 q16.3,-3.4 32.5,0 q22.0,-2.5 44.0,0 q16.7,-2.5 33.4,0 q22.4,-2.3 44.8,0 q19.6,-4.5 39.2,0 q14.8,-2.6 29.7,0 q16.0,-4.9 32.0,0 q18.2,-2.1 36.3,0 q21.7,-2.1 43.5,0 q17.9,-3.8 35.8,0 q21.1,-4.5 42.1,0 q18.2,-3.6 36.3,0 q16.0,-3.2 32.0,0 q16.9,-3.9 33.8,0 q16.9,-2.7 33.8,0 q14.6,-2.7 29.2,0 q21.4,-3.1 42.9,0 q17.7,-3.0 35.4,0 q16.4,-2.2 32.8,0 q22.0,-3.9 44.0,0 q15.7,-4.9 31.4,0 q15.0,-4.4 29.9,0 q22.7,-2.7 45.5,0 q23.0,-3.4 46.0,0 q22.9,-3.2 45.9,0 q22.2,-4.9 44.3,0" fill="none"/>
<path d="M0,355.0 q19.1,-4.6 38.1,0 q22.4,-3.9 44.9,0 q19.0,-3.8 38.1,0 q18.9,-3.8 37.8,0 q14.9,-3.5 29.8,0 q14.1,-2.3 28.2,0 q15.9,-3.1 31.9,0 q22.5,-3.5 45.0,0 q17.0,-2.7 34.1,0 q15.9,-3.1 31.8,0 q20.5,-4.3 41.0,0 q17.7,-4.4 35.4,0 q17.4,-4.4 34.8,0 q15.7,-3.7 31.5,0 q17.6,-3.1 35.2,0 q16.2,-2.5 32.5,0 q14.1,-2.5 28.2,0 q22.1,-2.5 44.1,0 q20.7,-4.5 41.5,0 q15.9,-2.4 31.7,0 q21.2,-4.3 42.4,0 q21.1,-4.9 42.2,0 q18.5,-2.1 37.0,0 q19.2,-3.2 38.4,0 q20.6,-3.8 41.2,0 q14.3,-3.6 28.5,0 q22.3,-2.2 44.6,0 q21.6,-4.4 43.1,0 q15.5,-2.4 31.0,0 q16.8,-2.3 33.7,0 q15.8,-4.0 31.5,0 q17.7,-2.7 35.4,0 q21.1,-4.9 42.3,0" fill="none"/>
<path d="M0,365.0 q19.4,-3.3 38.8,0 q22.7,-4.3 45.3,0 q17.2,-2.6 34.3,0 q14.1,-4.1 28.3,0 q22.2,-2.2 44.4,0 q19.5,-4.6 38.9,0 q18.9,-3.1 37.7,0 q17.0,-3.6 33.9,0 q22.9,-2.3 45.9,0 q18.3,-4.2 36.6,0 q20.4,-3.9 40.8,0 q18.4,-4.8 36.8,0 q22.4,-2.2 44.8,0 q15.0,-3.0 30.1,0 q22.1,-3.5 44.3,0 q17.1,-4.9 34.2,0 q14.8,-3.8 29.6,0 q18.4,-4.6 36.7,0 q22.6,-4.4 45.3,0 q21.3,-3.6 42.6,0 q21.2,-2.4 42.4,0 q16.5,-4.6 32.9,0 q14.5,-3.1 29.0,0 q19.6,-3.9 39.3,0 q16.7,-4.9 33.4,0 q21.3,-3.5 42.6,0 q22.6,-3.5 45.3,0 q14.5,-2.9 29.1,0 q22.7,-2.8 45.4,0 q21.1,-2.1 42.2,0 q18.9,-3.0 37.7,0 q21.5,-4.5 42.9,0" fill="none"/>
<path d="M0,375.0 q19.0,-4.3 37.9,0 q21.9,-2.2 43.8,0 q16.0,-4.8 31.9,0 q14.5,-4.2 29.0,0 q14.6,-2.5 29.2,0 q17.5,-4.6 35.0,0 q20.8,-3.2 41.7,0 q15.9,-2.3 31.8,0 q21.7,-4.0 43.5,0 q17.1,-4.1 34.2,0 q17.1,-3.5 34.2,0 q15.8,-3.7 31.6,0 q14.9,-4.0 29.8,0 q21.0,-2.8 42.0,0 q21.7,-4.1 43.5,0 q15.0,-4.4 30.0,0 q22.0,-2.7 44.0,0 q22.5,-3.2 44.9,0 q19.6,-2.2 39.1,0 q23.0,-2.7 46.0,0 q17.5,-4.7 34.9,0 q14.9,-2.7 29.7,0 q15.9,-3.2 31.9,0 q22.2,-3.3 44.3,0 q18.7,-3.8 37.4,0 q22.4,-4.4 44.8,0 q21.7,-2.0 43.5,0 q14.5,-5.0 29.1,0 q22.7,-4.0 45.3,0 q17.1,-4.7 34.2,0 q14.7,-3.4 29.4,0 q15.9,-2.8 31.8,0 q19.7,-2.3 39.4,0" fill="none"/>
<path d="M0,385.0 q20.4,-3.2 40.7,0 q22.9,-2.9 45.7,0 q22.5,-2.3 44.9,0 q16.1,-4.1 32.2,0 q16.2,-2.6 32.4,0 q14.7,-3.7 29.4,0 q20.4,-3.0 40.9,0 q22.1,-4.2 44.3,0 q21.4,-2.6 42.9,0 q20.7,-3.7 41.4,0 q22.0,-3.2 44.0,0 q18.6,-2.1 37.1,0 q20.3,-4.1 40.7,0 q19.7,-3.1 39.3,0 q21.6,-3.8 43.1,0 q17.8,-3.2 35.6,0 q16.8,-3.6 33.6,0 q22.9,-2.1 45.7,0 q18.6,-4.6 37.2,0 q21.1,-3.1 42.3,0 q16.8,-3.1 33.7,0 q21.3,-4.6 42.7,0 q14.0,-2.5 28.0,0 q20.7,-3.1 41.4,0 q14.8,-4.2 29.6,0 q18.3,-4.7 36.6,0 q22.9,-4.1 45.8,0 q19.7,-2.8 39.5,0 q22.0,-4.2 44.0,0 q20.0,-3.2 40.1,0 q21.7,-2.5 43.4,0" fill="none"/>
<line x1="73.1" y1="309.0" x2="73.1" y2="123.2"/>
<line x1="85.1" y1="309.0" x2="85.1" y2="123.2"/>
<line x1="73.1" y1="123.2" x2="85.1" y2="123.2"/>
<line x1="73.1" y1="221.0" x2="85.1" y2="221.0"/>
<path d="M73.1,190.7 L85.1,208.5 M85.1,190.7 L73.1,208.5" fill="none"/>
<line x1="371.6" y1="309.0" x2="371.6" y2="123.2"/>
<line x1="383.6" y1="309.0" x2="383.6" y2="123.2"/>
<line x1="371.6" y1="123.2" x2="383.6" y2="123.2"/>
<line x1="371.6" y1="221.0" x2="383.6" y2="221.0"/>
<path d="M371.6,190.7 L383.6,208.5 M383.6,190.7 L371.6,208.5" fill="none"/>
<path d="M19.1,274.3 Q79.1,123.2 79.1,123.2" fill="none"/>
<path d="M79.1,123.2 Q228.3,247.6 377.6,123.2" fill="none"/>
<path d="M377.6,123.2 Q377.6,123.2 437.6,274.3" fill="none"/>
<line x1="106.3" y1="164.3" x2="106.3" y2="301.0"/>
<line x1="133.4" y1="197.2" x2="133.4" y2="301.0"/>
<line x1="160.5" y1="221.9" x2="160.5" y2="301.0"/>
<line x1="187.7" y1="238.4" x2="187.7" y2="301.0"/>
<line x1="214.8" y1="246.6" x2="214.8" y2="301.0"/>
<line x1="241.9" y1="246.6" x2="241.9" y2="301.0"/>
<line x1="269.0" y1="238.4" x2="269.0" y2="301.0"/>
<line x1="296.2" y1="221.9" x2="296.2" y2="301.0"/>
<line x1="323.3" y1="197.2" x2="323.3" y2="301.0"/>
<line x1="350.4" y1="164.3" x2="350.4" y2="301.0"/>
<line x1="19.1" y1="301.0" x2="437.6" y2="301.0"/>
<line x1="19.1" y1="308.0" x2="437.6" y2="308.0"/>
<path d="M200.8,360.5 Q228.1,373.1 255.4,360.5 Z" fill="#fff"/>
<line x1="228.1" y1="360.5" x2="228.1" y2="329.0"/>
<path d="M228.1,329.0 L247.0,354.2 L228.1,354.2 Z" fill="#fff"/></g></svg>
